<svg xmlns="http://www.w3.org/2000/svg" width="43.207" height="61.177" viewBox="0 0 43.207 61.177"><defs><style>.a{fill:#fff;stroke:#fff;}</style></defs><g transform="translate(-1261.49 -655.347)"><g transform="translate(1262 655.847)"><g transform="translate(10.665 37.492)"><path class="a" d="M-289.6,749.178c-.667-.1-.376.156-4.86-7.755a1.033,1.033,0,0,1,1.8-1.018c1.111,1.963,2.553,4.492,3.463,6.1l3.82-3.619a1.032,1.032,0,0,1,1.422,1.5C-289.14,749.284-288.947,749.277-289.6,749.178Z" transform="translate(294.613 -739.876)"/></g><g transform="translate(20.05 37.553)"><path class="a" d="M-276.094,744.437a1.032,1.032,0,0,1,1.422-1.5q1.907,1.811,3.819,3.621l3.425-6.037a1.032,1.032,0,0,1,1.8,1.019c-4.412,7.778-4.137,7.592-4.818,7.693C-271.1,749.332-270.914,749.357-276.094,744.437Z" transform="translate(276.429 -739.994)"/></g><g transform="translate(7.698 48.625)"><path class="a" d="M-300.36,769.473V762.46a1.024,1.024,0,0,1,2.048,0v7.013A1.024,1.024,0,0,1-300.36,769.473Z" transform="translate(300.36 -761.445)"/></g><g transform="translate(32.441 48.625)"><path class="a" d="M-252.423,769.481V762.46a1.024,1.024,0,0,1,2.047,0v7.021A1.024,1.024,0,0,1-252.423,769.481Z" transform="translate(252.423 -761.445)"/></g><g transform="translate(0 36.485)"><path class="a" d="M-314.918,754.214c-1.507-1.234,1.543-14.114,13.394-16.273a1.025,1.025,0,0,1,1.163.708c3.825,3.15,8.7,2.944,12.6-.472a1.028,1.028,0,0,1,1.038-.185c.525.2,12.865,5.013,13.638,15.354a1.021,1.021,0,0,1-.372.868A32.736,32.736,0,0,1-314.918,754.214Zm1.72-1.243a30.69,30.69,0,0,0,38.023,0c-.932-7.556-9.442-11.821-11.718-12.832a11.361,11.361,0,0,1-14.957-.043A14.885,14.885,0,0,0-313.2,752.971Z" transform="translate(315.275 -737.925)"/></g><g transform="translate(5.993 0)"><path class="a" d="M-277.289,683.483v-4.119c0-5.551-4.82-10.067-10.744-10.067h-2.827c-5.924,0-10.744,4.516-10.744,10.067v3.992a1.03,1.03,0,0,1-2.059,0v-3.992c0-6.686,5.743-12.126,12.8-12.126h2.827c7.059,0,12.8,5.44,12.8,12.126v4.119A1.029,1.029,0,0,1-277.289,683.483Z" transform="translate(303.663 -667.238)"/></g><g transform="translate(9.087 6.086)"><path class="a" d="M-287.916,692.169c-1.813-.736-3.691-2.049-5.628-1.431-1.859.6-1.912,2.007-3.03,1.732-2.164-.534-2.167-13.44,9.958-13.44,5.684,0,9.2,2.556,10.742,7.814.555,1.892.748,5.6-1.221,5.365a1.228,1.228,0,0,1-.516-.19C-280.987,693.129-284.612,693.511-287.916,692.169Zm10.336-2.339a7.069,7.069,0,0,0-.27-2.406c-1.269-4.322-4.055-6.335-8.767-6.335a8.951,8.951,0,0,0-6.255,2,8.337,8.337,0,0,0-2.68,6.347C-289.757,685.709-288.421,693.765-277.58,689.83Zm1.383,1.077h0Z" transform="translate(297.669 -679.03)"/></g><g transform="translate(17.172 23.438)"><path class="a" d="M-281.264,725.456a1.029,1.029,0,0,1,.567-1.979c4.989,1.428,10.222-2.942,10.847-9.9a1.03,1.03,0,0,1,2.051.185C-268.551,722.125-275.1,727.22-281.264,725.456Z" transform="translate(282.006 -712.647)"/></g><g transform="translate(9.036 23.434)"><path class="a" d="M-296.252,718.479a12.766,12.766,0,0,1-1.513-4.755,1.029,1.029,0,0,1,2.054-.125c.183,3,2.5,4.639.82,5.394A1.03,1.03,0,0,1-296.252,718.479Z" transform="translate(297.768 -712.64)"/></g><g transform="translate(14.813 22.373)"><path class="a" d="M-283.19,712.641h-2.365a1.029,1.029,0,0,1,0-2.058h2.365A1.029,1.029,0,0,1-283.19,712.641Z" transform="translate(286.576 -710.583)"/></g><g transform="translate(22.246 22.373)"><path class="a" d="M-268.789,712.641h-2.365a1.029,1.029,0,0,1,0-2.058h2.365A1.029,1.029,0,0,1-268.789,712.641Z" transform="translate(272.174 -710.583)"/></g><g transform="translate(29.325 15.216)"><path class="a" d="M-255.607,708.92h-1.825a1.029,1.029,0,0,1-1.029-1.029V697.747a1.029,1.029,0,0,1,1.029-1.029h1.825a5.3,5.3,0,0,1,5.291,5.291v1.621A5.3,5.3,0,0,1-255.607,708.92Zm-.8-2.058h.8a3.235,3.235,0,0,0,3.232-3.232v-1.621a3.236,3.236,0,0,0-3.232-3.232h-.8Z" transform="translate(258.461 -696.718)"/></g><g transform="translate(2.95 15.216)"><path class="a" d="M-302.443,708.92h-1.825a5.3,5.3,0,0,1-5.291-5.291v-1.621a5.3,5.3,0,0,1,5.291-5.291h1.825a1.029,1.029,0,0,1,1.029,1.029v10.143A1.029,1.029,0,0,1-302.443,708.92Zm-1.825-10.143a3.236,3.236,0,0,0-3.233,3.232v1.621a3.236,3.236,0,0,0,3.233,3.232h.8v-8.085Z" transform="translate(309.559 -696.718)"/></g><g transform="translate(5.967 25.36)"><path class="a" d="M-293.529,724.514h-2.79c-6.854,0-8.888-8.144-6.334-8.144a1.029,1.029,0,0,1,1.029,1.029,5.131,5.131,0,0,0,5.305,5.057h2.79A1.029,1.029,0,0,1-293.529,724.514Z" transform="translate(303.714 -716.37)"/></g><g transform="translate(14.126 29.432)"><path class="a" d="M-284.731,724.26h-1.286c-2.486,0-2.555,4.057,0,4.057,1.083,0,3.179.318,3.179-2.164A1.9,1.9,0,0,0-284.731,724.26Z" transform="translate(287.908 -724.26)"/></g><g transform="translate(19.501 14.106)"><path class="a" d="M-273.681,699.834l-3.5-3.5a1.029,1.029,0,0,1,1.456-1.456l3.5,3.5A1.029,1.029,0,0,1-273.681,699.834Z" transform="translate(277.493 -694.566)"/></g></g></g></svg>