<svg xmlns="http://www.w3.org/2000/svg" width="55.12" height="55" viewBox="0 0 55.12 55"><defs><style>.a{fill:#fff;stroke:#fff;}</style></defs><g transform="translate(-4.5 -4.5)"><g transform="translate(5 5)"><path class="a" d="M65.651,11.12l-5.1-5.1A3.537,3.537,0,0,0,58.031,5a3.359,3.359,0,0,0-2.52,1.08L52.931,8.6h0L27.491,34.04h0l-3,10.08a2.548,2.548,0,0,0,.3,2.4,2.285,2.285,0,0,0,1.86.84,2.717,2.717,0,0,0,.96-.18l10.08-3,.06.06,23.76-23.76h0l4.26-4.26a3.593,3.593,0,0,0,1.08-2.52A4.3,4.3,0,0,0,65.651,11.12ZM30.191,43.94l-2.4-2.4,1.44-4.86,5.82,5.82Zm7.5-3.12-6.78-6.78,22.02-22.02,3.42,3.42,3.42,3.42Zm26.28-26.28-2.52,2.52-3.42-3.42-3.42-3.42,2.52-2.52a1.16,1.16,0,0,1,1.68,0l5.1,5.1a1.185,1.185,0,0,1,.36.84A.99.99,0,0,1,63.971,14.54Z" transform="translate(-12.731 -5)"/><path class="a" d="M57.9,24.055,42.66,39.295a1.188,1.188,0,0,0,1.68,1.68l15.3-15.3a1.16,1.16,0,0,0,0-1.68A1.292,1.292,0,0,0,57.9,24.055Z" transform="translate(-19.92 -12.475)"/><path class="a" d="M43.22,63.12a2.407,2.407,0,0,1-2.4,2.4H9.8a2.407,2.407,0,0,1-2.4-2.4V32.1a2.407,2.407,0,0,1,2.4-2.4H25.34V27.3H9.8A4.814,4.814,0,0,0,5,32.1V63.12a4.814,4.814,0,0,0,4.8,4.8H40.82a4.814,4.814,0,0,0,4.8-4.8V47.76h-2.4Z" transform="translate(-5 -13.92)"/></g></g></svg>