<svg xmlns="http://www.w3.org/2000/svg" width="21.016" height="32.541" viewBox="0 0 21.016 32.541"><defs><style>.a{fill:#a7adb7;}</style></defs><g transform="translate(-1063.262 -3876)"><g transform="translate(1063.262 3876)"><g transform="translate(0 0)"><g transform="translate(0.678)"><path class="a" d="M127.971,48.541H113.689A2.692,2.692,0,0,1,111,45.852V18.689A2.692,2.692,0,0,1,113.689,16h14.282a2.692,2.692,0,0,1,2.689,2.689V45.852A2.692,2.692,0,0,1,127.971,48.541ZM113.689,17.356a1.335,1.335,0,0,0-1.333,1.333V45.852a1.335,1.335,0,0,0,1.333,1.333h14.282a1.335,1.335,0,0,0,1.333-1.333V18.689a1.335,1.335,0,0,0-1.333-1.333Z" transform="translate(-111 -16)"/></g><g transform="translate(6.779)"><path class="a" d="M206.847,19.39H202.61A1.612,1.612,0,0,1,201,17.78v-1.1a.678.678,0,0,1,.678-.678h6.1a.678.678,0,0,1,.678.678v1.1A1.612,1.612,0,0,1,206.847,19.39Zm-4.491-2.034v.424a.254.254,0,0,0,.254.254h4.237a.255.255,0,0,0,.254-.254v-.424Z" transform="translate(-201 -16)"/></g><path class="a" d="M271.678,237.356h0a.678.678,0,0,1-.678-.678h0a.678.678,0,0,1,.678-.678h0a.678.678,0,0,1,.678.678h0A.678.678,0,0,1,271.678,237.356Z" transform="translate(-259.475 -221.085)"/><g transform="translate(6.44 8.813)"><path class="a" d="M196.678,155.151a.678.678,0,0,1-.479-1.157l7.8-7.8a.678.678,0,0,1,.959.959l-7.8,7.8A.676.676,0,0,1,196.678,155.151Z" transform="translate(-196 -145.999)"/></g><g transform="translate(6.101 16.27)"><path class="a" d="M191.678,261.423a.678.678,0,0,1-.479-1.157l4.068-4.068a.678.678,0,0,1,.959.959l-4.068,4.068A.676.676,0,0,1,191.678,261.423Z" transform="translate(-191 -255.999)"/></g><g transform="translate(18.982 6.101)"><path class="a" d="M382.356,111.424h-.678a.678.678,0,0,1-.678-.678v-4.068a.678.678,0,0,1,.678-.678h.678a.678.678,0,0,1,.678.678v4.068A.678.678,0,0,1,382.356,111.424Z" transform="translate(-381 -106)"/></g><g transform="translate(0 6.101)"><path class="a" d="M102.356,108.034h-.678a.678.678,0,0,1-.678-.678v-.678a.678.678,0,0,1,.678-.678h.678a.678.678,0,0,1,.678.678v.678A.678.678,0,0,1,102.356,108.034Z" transform="translate(-101 -106)"/></g><g transform="translate(0 8.813)"><path class="a" d="M102.356,148.034h-.678a.678.678,0,0,1-.678-.678v-.678a.678.678,0,0,1,.678-.678h.678a.678.678,0,0,1,.678.678v.678A.678.678,0,0,1,102.356,148.034Z" transform="translate(-101 -146)"/></g></g></g></g></svg>