<svg xmlns="http://www.w3.org/2000/svg" width="83.551" height="83.551" viewBox="0 0 83.551 83.551"><defs><style>.a{fill:#fff;}</style></defs><g transform="translate(-13 -965.362)"><path class="a" d="M45.743,965.362a2.258,2.258,0,0,0-2.258,2.258v18.065a2.258,2.258,0,1,0,4.516,0V967.62A2.258,2.258,0,0,0,45.743,965.362Zm-21.558,8.927a2.258,2.258,0,0,0-1.588,3.846L33.782,989.32a2.245,2.245,0,1,0,3.176-3.176L25.773,974.959A2.24,2.24,0,0,0,24.185,974.289Zm43.116,0a2.24,2.24,0,0,0-1.588.67L54.528,986.144A2.245,2.245,0,0,0,57.7,989.32l11.185-11.185a2.258,2.258,0,0,0-1.588-3.846ZM42.25,994.612l19.97,51.9,7.057-15.313,17.677,17.712,9.6-9.6-17.712-17.677,15.313-7.057Zm-26.992,1.235a2.258,2.258,0,1,0,0,4.516H33.253a2.258,2.258,0,1,0,0-4.516ZM35.37,1006.22a2.24,2.24,0,0,0-1.588.67L22.6,1018.076a2.245,2.245,0,0,0,3.175,3.175l11.185-11.185a2.258,2.258,0,0,0-1.588-3.846Z" transform="translate(0 0)"/></g></svg>