<svg xmlns="http://www.w3.org/2000/svg" width="23.924" height="33.637" viewBox="0 0 23.924 33.637"><defs><style>.a{fill:#a7adb7;fill-rule:evenodd;}</style></defs><g transform="translate(0 0)"><g transform="translate(0 0)"><path class="a" d="M12.032,33.706l-.653-.762C10.917,32.406.07,19.663.07,12.032a11.962,11.962,0,1,1,23.924,0c0,7.631-10.847,20.374-11.309,20.912l-.653.762Zm0-31.916A10.252,10.252,0,0,0,1.791,12.032c0,5.988,7.888,16.117,10.241,19,2.352-2.887,10.241-13.02,10.241-19A10.252,10.252,0,0,0,12.032,1.791Z" transform="translate(-0.07 -0.07)"/><path class="a" d="M12.631,17.192a4.561,4.561,0,1,1,4.561-4.561,4.566,4.566,0,0,1-4.561,4.561Zm0-7.4a2.84,2.84,0,1,0,2.84,2.84,2.844,2.844,0,0,0-2.84-2.84Z" transform="translate(-0.669 -0.669)"/></g></g></svg>