<svg xmlns="http://www.w3.org/2000/svg" width="22" height="22" viewBox="0 0 22 22"><defs><style>.a{fill:#296ab0;fill-rule:evenodd;}</style></defs><g transform="translate(-5 -5)"><path class="a" d="M25.808,5H6.192A1.213,1.213,0,0,0,5,6.192V25.717A1.235,1.235,0,0,0,6.192,27H16.733V18.475H13.892v-3.3h2.842V12.7a4.022,4.022,0,0,1,4.308-4.4c1.192,0,2.292.092,2.567.092v3.025H21.867c-1.375,0-1.65.642-1.65,1.65v2.108h3.3l-.458,3.3H20.217V27h5.592A1.213,1.213,0,0,0,27,25.808V6.192A1.213,1.213,0,0,0,25.808,5Z"/></g></svg>