<svg xmlns="http://www.w3.org/2000/svg" width="23" height="23" viewBox="0 0 23 23"><defs><style>.a{fill:#37424a;}</style></defs><g transform="translate(-13 -965.362)"><path class="a" d="M22.014,965.362a.622.622,0,0,0-.622.622v4.973a.622.622,0,1,0,1.243,0v-4.973A.622.622,0,0,0,22.014,965.362Zm-5.935,2.457a.622.622,0,0,0-.437,1.059l3.079,3.079a.618.618,0,1,0,.874-.874L16.516,968A.617.617,0,0,0,16.079,967.82Zm11.869,0a.617.617,0,0,0-.437.185l-3.079,3.079a.618.618,0,0,0,.874.874l3.079-3.079a.622.622,0,0,0-.437-1.059Zm-6.9,5.595,5.5,14.287,1.943-4.215,4.866,4.876L36,985.72l-4.876-4.866,4.215-1.943Zm-7.43.34a.622.622,0,0,0,0,1.243h4.954a.622.622,0,0,0,0-1.243Zm5.536,2.856a.617.617,0,0,0-.437.185l-3.079,3.079a.618.618,0,0,0,.874.874l3.079-3.079a.622.622,0,0,0-.437-1.059Z" transform="translate(0)"/></g></svg>