<svg xmlns="http://www.w3.org/2000/svg" width="32.269" height="32.269" viewBox="0 0 32.269 32.269"><defs><style>.a{fill:none;}.b{fill:#fff;stroke:#fff;stroke-width:0.5px;}.c,.d{stroke:none;}.d{fill:#fff;}</style></defs><g class="a"><path class="c" d="M16.134,0A16.134,16.134,0,1,1,0,16.134,16.134,16.134,0,0,1,16.134,0Z"/><path class="d" d="M 16.13427543640137 1.499994277954102 C 12.2253246307373 1.499994277954102 8.550334930419922 3.022224426269531 5.786275863647461 5.786275863647461 C 3.022226333618164 8.550334930419922 1.499996185302734 12.2253246307373 1.499996185302734 16.13428497314453 C 1.499996185302734 20.04324531555176 3.022226333618164 23.71823501586914 5.786275863647461 26.48228454589844 C 8.550325393676758 29.24633407592773 12.22531509399414 30.76856422424316 16.13427543640137 30.76856422424316 C 20.04323577880859 30.76856422424316 23.71822547912598 29.24633407592773 26.48226547241211 26.48228454589844 C 29.24631500244141 23.71823501586914 30.76854515075684 20.04324531555176 30.76854515075684 16.13428497314453 C 30.76854515075684 12.2253246307373 29.24631500244141 8.550334930419922 26.48226547241211 5.786275863647461 C 23.71822547912598 3.022224426269531 20.04323577880859 1.499994277954102 16.13427543640137 1.499994277954102 M 16.13427543640137 -3.814697265625e-06 C 25.04499435424805 -3.814697265625e-06 32.26854705810547 7.223564147949219 32.26854705810547 16.13428497314453 C 32.26854705810547 25.04500579833984 25.04499435424805 32.2685661315918 16.13427543640137 32.2685661315918 C 7.223566055297852 32.2685661315918 -3.814697265625e-06 25.04500579833984 -3.814697265625e-06 16.13428497314453 C -3.814697265625e-06 7.223564147949219 7.223566055297852 -3.814697265625e-06 16.13427543640137 -3.814697265625e-06 Z"/></g><g transform="translate(8.979 8.621)"><g transform="translate(0 0)"><path class="b" d="M7.42,1.337c1.981,0,2.215.008,3,.043a4.105,4.105,0,0,1,1.377.256,2.284,2.284,0,0,1,.853.556,2.288,2.288,0,0,1,.555.853,4.11,4.11,0,0,1,.254,1.377c.037.782.043,1.016.043,3s-.007,2.215-.043,3A4.076,4.076,0,0,1,13.2,11.8,2.453,2.453,0,0,1,11.8,13.2a4.1,4.1,0,0,1-1.377.256c-.784.035-1.018.043-3,.043s-2.216-.008-3-.043A4.1,4.1,0,0,1,3.044,13.2a2.3,2.3,0,0,1-.853-.554,2.3,2.3,0,0,1-.556-.853,4.129,4.129,0,0,1-.256-1.379c-.035-.782-.043-1.016-.043-3s.008-2.217.043-3a4.107,4.107,0,0,1,.256-1.377,2.292,2.292,0,0,1,.556-.853,2.271,2.271,0,0,1,.853-.556A4.1,4.1,0,0,1,4.421,1.38c.782-.035,1.018-.043,3-.043M7.42,0C5.4,0,5.151.01,4.359.045a5.426,5.426,0,0,0-1.8.346,3.636,3.636,0,0,0-1.314.855A3.64,3.64,0,0,0,.389,2.56a5.428,5.428,0,0,0-.346,1.8C.008,5.153,0,5.405,0,7.421S.008,9.688.044,10.48a5.471,5.471,0,0,0,.346,1.8,3.624,3.624,0,0,0,.857,1.314,3.629,3.629,0,0,0,1.314.857,5.477,5.477,0,0,0,1.8.344c.792.037,1.043.045,3.059.045s2.269-.008,3.06-.045a5.468,5.468,0,0,0,1.8-.344,3.79,3.79,0,0,0,2.17-2.171,5.463,5.463,0,0,0,.346-1.8c.035-.792.043-1.045.043-3.059s-.008-2.269-.045-3.06a5.427,5.427,0,0,0-.344-1.8,3.64,3.64,0,0,0-.857-1.314A3.639,3.639,0,0,0,12.28.391a5.429,5.429,0,0,0-1.8-.346C9.687.01,9.434,0,7.42,0Z" transform="translate(0 0)"/><path class="b" d="M3.81,0a3.81,3.81,0,1,0,3.81,3.81A3.81,3.81,0,0,0,3.81,0Zm0,6.284A2.473,2.473,0,1,1,6.284,3.81,2.474,2.474,0,0,1,3.81,6.284Z" transform="translate(3.61 3.611)"/><ellipse class="b" cx="0.89" cy="0.89" rx="0.89" ry="0.89" transform="translate(10.199 3.894) rotate(-65.184)"/></g></g></svg>