<svg xmlns="http://www.w3.org/2000/svg" width="157.065" height="62.387" viewBox="0 0 157.065 62.387"><defs><style>.a{fill:#fff;}</style></defs><g transform="translate(-50 -16)"><g transform="translate(50 16)"><path class="a" d="M350.315,254.074l0-17.426h-3.332v17.426Z" transform="translate(-294.161 -206.571)"/><path class="a" d="M370.737,252.946a6.186,6.186,0,1,0-6.178,6.5,6.207,6.207,0,0,0,6.178-6.5m-3.276,0c0,2.2-1.319,3.988-2.9,3.988s-2.9-1.788-2.9-3.988c0-2.159,1.313-3.955,2.9-3.955s2.9,1.8,2.9,3.955" transform="translate(-299.984 -211.595)"/><path class="a" d="M396.516,247.583a7.28,7.28,0,0,0-2.689-1.027,10.162,10.162,0,0,0-2.039-.24c-2.983,0-4.993,1.563-4.993,3.858,0,1.635,1.007,2.8,3.176,3.617l2.11.815c.841.319,1.24.744,1.24,1.293,0,.662-.708,1.063-1.926,1.063a4.434,4.434,0,0,1-1.373-.24,10.486,10.486,0,0,1-2.637-1.29l-1.009,2.554a10.391,10.391,0,0,0,3.036,1.141,9.944,9.944,0,0,0,2.01.235c2.957,0,4.912-1.477,4.912-3.727a3.392,3.392,0,0,0-1.268-2.717,19.142,19.142,0,0,0-3.7-1.692c-1.107-.39-1.531-.734-1.531-1.291,0-.688.788-1.165,2.009-1.165a5.739,5.739,0,0,1,2.826.851c.241.132.521.314.838.529Z" transform="translate(-314.291 -211.512)"/><path class="a" d="M438.256,254.074l-6.309-17.426h-2.982l-6.307,17.426h3.485l1.419-4.3h5.84l1.375,4.3Zm-5.757-7.128H428.46l2.006-6.305Z" transform="translate(-332.833 -206.571)"/><path class="a" d="M469.232,259.207V250.18c0-2.319-1.1-3.488-3.317-3.488-1.567,0-2.781.662-4.261,2.27V246.93h-3.162v12.277h3.162v-7.385l.426-.455c1.367-1.48,2.19-1.537,2.853-1.507.628.027,1.133-.075,1.133,1.455v7.892Z" transform="translate(-351.146 -211.704)"/><path class="a" d="M497.1,253.116V234.774l-3.15.906v5.662a3.577,3.577,0,0,0-1.633-.74,3.98,3.98,0,0,0-1.08-.129c-3.249,0-5.86,3.06-5.86,6.867,0,3.534,2.133,6.123,5.039,6.123a4.191,4.191,0,0,0,2.3-.69,3.307,3.307,0,0,0,1.236-1.318v1.661Zm-3.15-4.09a3.436,3.436,0,0,1-2.713,1.848c-1.509,0-2.536-1.552-2.536-3.775,0-2.321,1.293-4.038,3.035-4.038a2.1,2.1,0,0,1,2.06,1.135,6.7,6.7,0,0,1,.153,1.58Z" transform="translate(-364.887 -205.613)"/><path class="a" d="M525.272,257.913l-1.163-2.4a8.141,8.141,0,0,1-2.352,1.158,4.773,4.773,0,0,1-1.449.215,3.18,3.18,0,0,1-2.744-1.482,3.786,3.786,0,0,1-.422-1.955h8.131V252.1c0-3.32-2.11-5.623-5.148-5.623-3.517,0-6.152,2.93-6.152,6.814,0,3.752,2.3,6.152,5.943,6.152a9.6,9.6,0,0,0,4.038-.876c.291-.127.739-.338,1.319-.656m-3.169-6.442h-4.8c.262-1.661,1.207-2.618,2.614-2.618,1.473,0,2.108.742,2.188,2.618" transform="translate(-379.5 -211.596)"/><path class="a" d="M549.583,247.583a7.3,7.3,0,0,0-2.692-1.027,10.179,10.179,0,0,0-2.04-.24c-2.984,0-4.99,1.563-4.99,3.858,0,1.635,1.007,2.8,3.175,3.617l2.109.815c.848.319,1.24.744,1.24,1.293,0,.662-.715,1.063-1.925,1.063a4.418,4.418,0,0,1-1.374-.24,10.594,10.594,0,0,1-2.64-1.29l-1,2.554a10.279,10.279,0,0,0,3.036,1.141,9.9,9.9,0,0,0,2.009.235c2.958,0,4.9-1.477,4.9-3.727a3.406,3.406,0,0,0-1.261-2.717,19.142,19.142,0,0,0-3.7-1.692c-1.108-.39-1.535-.734-1.535-1.291,0-.688.792-1.165,2.008-1.165a5.708,5.708,0,0,1,2.827.851c.236.132.529.314.841.529Z" transform="translate(-392.518 -211.512)"/><path class="a" d="M353.51,211.629V205.9h-1.063V211.3c0,1.067-.074,1.363-.49,1.819a2.345,2.345,0,0,1-1.8.738,2.316,2.316,0,0,1-1.783-.738c-.419-.456-.5-.752-.5-1.819V205.9h-1.059v5.733a2.728,2.728,0,0,0,1,2.388,3.649,3.649,0,0,0,2.364.792,3.609,3.609,0,0,0,2.351-.792,2.711,2.711,0,0,0,.983-2.388" transform="translate(-294.071 -190.855)"/><path class="a" d="M370.139,217.3v-4.4c0-1.1-.509-1.64-1.544-1.64a2.453,2.453,0,0,0-1.57.588,5.086,5.086,0,0,0-.806.8V211.42h-.978V217.3h.978V213.71c1.026-1.133,1.663-1.572,2.258-1.572a.631.631,0,0,1,.6.31,1.65,1.65,0,0,1,.093.69V217.3Z" transform="translate(-303.489 -193.598)"/><path class="a" d="M380.7,206.719a.636.636,0,1,0-.636.641.636.636,0,0,0,.636-.641m-.159,2.055h-.973v5.884h.973Z" transform="translate(-310.742 -190.951)"/><path class="a" d="M389.835,211.584h-1.061l-1.6,4.781-.019.228-.022-.243-1.621-4.767h-1.068l2.207,6.057h.9Z" transform="translate(-313.303 -193.762)"/><path class="a" d="M402.056,214.284v-.575a2.227,2.227,0,0,0-2.276-2.446c-1.674,0-2.782,1.234-2.782,3.109,0,1.853,1.107,3.1,2.744,3.1a3.566,3.566,0,0,0,2.13-.716l-.394-.764a2.453,2.453,0,0,1-1.531.58c-1.2,0-1.924-.867-1.924-2.293Zm-1.07-.732h-2.88a1.605,1.605,0,0,1,1.612-1.4c.808,0,1.259.487,1.269,1.4" transform="translate(-319.719 -193.598)"/><path class="a" d="M413.857,211.668a1.143,1.143,0,0,0-.755-.4c-.442,0-.8.287-1.529,1.222v-1.069H410.6V217.3h.978v-3.5c.555-1.018,1.022-1.549,1.39-1.549.119,0,.218.064.416.234Z" transform="translate(-326.668 -193.598)"/><path class="a" d="M423.09,215.783c0-.918-.346-1.324-1.6-1.846-1.063-.44-1.221-.527-1.455-.76a.525.525,0,0,1-.143-.367c0-.44.428-.742,1.094-.742a2.688,2.688,0,0,1,.675.105,2.649,2.649,0,0,1,.843.39l.485-.793a3.336,3.336,0,0,0-1.145-.439,4.974,4.974,0,0,0-.756-.067c-1.376,0-2.238.638-2.238,1.666,0,.711.392,1.115,1.537,1.594,1.051.433,1.323.6,1.559.934a.8.8,0,0,1,.119.406c0,.458-.444.78-1.036.78a3.473,3.473,0,0,1-1.354-.322c-.107-.053-.246-.134-.444-.238l-.4.823a4.251,4.251,0,0,0,1.391.49,4.827,4.827,0,0,0,.819.08c1.283,0,2.051-.639,2.051-1.694" transform="translate(-330.877 -193.598)"/><path class="a" d="M432.394,206.719a.639.639,0,0,0-1.278,0,.639.639,0,1,0,1.278,0m-.155,2.055h-.978v5.884h.978Z" transform="translate(-337.156 -190.951)"/><path class="a" d="M442.221,214.561V205.9h-.988v3.029a2.121,2.121,0,0,0-1.4-.4,3.032,3.032,0,0,0-3,3.26c0,1.746,1.013,2.953,2.457,2.953a2.588,2.588,0,0,0,1.947-.915v.743Zm-.988-1.793a3.213,3.213,0,0,1-.636.64,2.171,2.171,0,0,1-1.146.4c-.908,0-1.571-.855-1.571-2.037a2.049,2.049,0,0,1,2.051-2.313,1.239,1.239,0,0,1,1.18.5,1.44,1.44,0,0,1,.122.774Z" transform="translate(-340.075 -190.855)"/><path class="a" d="M456.258,216.658q-.448-.085-.487-.314v-3.611c0-.906-.745-1.469-1.917-1.469-1.259,0-2.127.538-2.127,1.312a.574.574,0,0,0,.116.366l.986-.21a.611.611,0,0,1-.059-.22c0-.339.291-.508.9-.508.759,0,1.119.251,1.119.728V213.8l-2.039.483a1.557,1.557,0,0,0-1.313,1.632A1.471,1.471,0,0,0,453,217.467a2.62,2.62,0,0,0,1.248-.34,3.308,3.308,0,0,0,.625-.468c.051.554.334.764,1.144.819Zm-1.47-.821c-.847.616-1.147.755-1.58.755a.737.737,0,0,1-.8-.767,1.168,1.168,0,0,1,.168-.637l2.213-.574Z" transform="translate(-347.54 -193.598)"/><path class="a" d="M469.171,214.561V205.9h-.991v3.029a2.115,2.115,0,0,0-1.4-.4,3.027,3.027,0,0,0-3,3.26c0,1.746,1.013,2.953,2.453,2.953a2.571,2.571,0,0,0,1.95-.915v.743Zm-.991-1.793a3.293,3.293,0,0,1-.632.64,2.207,2.207,0,0,1-1.148.4c-.9,0-1.566-.855-1.566-2.037a2.047,2.047,0,0,1,2.049-2.313,1.235,1.235,0,0,1,1.177.5,1.484,1.484,0,0,1,.12.774Z" transform="translate(-353.847 -190.855)"/><path class="a" d="M490.125,214.561V205.9h-.992v3.029a2.107,2.107,0,0,0-1.4-.4,3.033,3.033,0,0,0-3.005,3.26c0,1.746,1.014,2.953,2.458,2.953a2.57,2.57,0,0,0,1.944-.915v.743Zm-.992-1.793a3.039,3.039,0,0,1-.634.64,2.19,2.19,0,0,1-1.143.4c-.907,0-1.572-.855-1.572-2.037a2.049,2.049,0,0,1,2.052-2.313,1.255,1.255,0,0,1,1.186.5,1.572,1.572,0,0,1,.112.774Z" transform="translate(-364.556 -190.855)"/><path class="a" d="M504.092,214.284v-.575a2.224,2.224,0,0,0-2.266-2.446,2.79,2.79,0,0,0-2.789,3.109c0,1.853,1.111,3.1,2.745,3.1a3.533,3.533,0,0,0,2.128-.716l-.388-.764a2.435,2.435,0,0,1-1.528.58c-1.2,0-1.926-.867-1.926-2.293Zm-1.061-.732h-2.883a1.6,1.6,0,0,1,1.61-1.4c.81,0,1.262.487,1.273,1.4" transform="translate(-371.867 -193.598)"/><path class="a" d="M241.47,194.422a39.458,39.458,0,0,0-1.765,11.783v.121c0,17.041,10.145,30.434,22.217,30.434s22.22-13.393,22.22-30.434v-.121a39.4,39.4,0,0,0-1.785-11.846c-3.441-10.989-11.388-18.464-20.436-18.464s-17.02,7.5-20.452,18.526m-2.526,11.783a40.17,40.17,0,0,1,1.8-12.01c3.488-11.2,11.656-19.062,21.176-19.062s17.661,7.829,21.162,19a40.213,40.213,0,0,1,1.822,12.073v.121c0,17.228-10.29,31.194-22.984,31.194s-22.978-13.966-22.978-31.194Z" transform="translate(-238.944 -175.133)"/><path class="a" d="M278.744,182.189a1.756,1.756,0,0,0-2.41-1.3,3.535,3.535,0,0,0-1.394.5.127.127,0,0,0,0,.176l.47-.06.739,2.974-.3.16c-.124.066-.162.163-.1.272.118-.035.509-.139.78-.206.294-.077.674-.147.838-.186a1.769,1.769,0,0,0,1.37-2.331m-1.383,2.015a2.952,2.952,0,0,1-.716.113l-.746-3.026c1.334-.335,2.077.082,2.359,1.218a1.3,1.3,0,0,1-.9,1.694" transform="translate(-257.322 -178.028)"/><path class="a" d="M292.958,183.185a1.479,1.479,0,0,0-.971-2.118,1.912,1.912,0,0,0-2.472,1.447,1.5,1.5,0,0,0,.915,2.121,1.917,1.917,0,0,0,2.527-1.45m-.6.067c-.317.972-.938,1.306-1.615,1.086s-.976-.848-.623-1.926c.273-.846.851-1.28,1.567-1.049.833.271.953,1.035.672,1.889" transform="translate(-264.723 -178.112)"/><path class="a" d="M299.139,188.405a1.647,1.647,0,0,1-.281-.848l-.152-1.439a1.17,1.17,0,0,0,1.2-.53c.327-.516.125-1.107-.554-1.529-.829-.52-1.183-.686-1.282-.53-.014.024-.019.044-.03.067l.365.3-1.632,2.609-.343-.1a.178.178,0,0,0-.242.12c.213.121.359.211.559.332s.386.254.588.38a.242.242,0,0,0,.324-.06l-.454-.382.65-1.033.341.212.1,1.515c.044.569.171.726.453.9a.328.328,0,0,0,.387.017m.247-3a.793.793,0,0,1-1.2.266c-.06-.038-.127-.087-.193-.135l.892-1.43c.082.042.161.094.228.133a.785.785,0,0,1,.272,1.166" transform="translate(-268.202 -179.395)"/><path class="a" d="M259.6,195.613c-.475-.4-.871-.293-1.477.066-.465.275-.805.364-1.083.136a.634.634,0,0,1,0-.869,2.1,2.1,0,0,1,.5-.452l.4.361a.259.259,0,0,0,.029-.43l-.431-.427a4.641,4.641,0,0,0-.68.647,1.2,1.2,0,0,0,.021,1.7c.307.256.714.251,1.255-.057.732-.417,1.028-.381,1.283-.165a.719.719,0,0,1,.017.949c-.363.433-.693.492-1.107.149a.428.428,0,0,0,.011.612c.37.31.84.088,1.247-.4a1.315,1.315,0,0,0,.008-1.824" transform="translate(-247.925 -184.775)"/><path class="a" d="M263.061,188.863l-.793-.7a10.421,10.421,0,0,1-1.039,1.081c-.341.329-.713.639-1.146,1.06l.623.83c.155-.1.186-.184.039-.527l-.143-.316c.172-.184.4-.394.609-.588l2.135,2.211-.22.341a.174.174,0,0,0,.062.27c.111-.127.334-.345.549-.55.185-.182.367-.348.479-.448a.215.215,0,0,0,.022-.33l-.506.346-2.132-2.209a5.655,5.655,0,0,0,.619-.622l.434.243a.254.254,0,0,0,.409-.1" transform="translate(-249.747 -181.795)"/><path class="a" d="M269.259,182.945l-.936.544c-.173.1-.192.243-.109.335l.425-.157.628,2.758-2.169-1.86.256-.184a.287.287,0,0,0,.1-.393l-1.063.613c-.159.092-.226.262-.116.383l.332-.133,2.81,2.441a.677.677,0,0,0,.251-.74l-.648-3.049c.329-.147.394-.327.237-.557" transform="translate(-252.886 -179.125)"/><path class="a" d="M285.791,183.367l-.541-.109.052-3.107.276-.024c.183-.013.251-.069.231-.258-1.085-.019-1.174-.022-1.174-.022-.214,0-.326.078-.3.248l.446.048-.057,3.107-.344.069c-.176.036-.217.132-.179.242.164-.008.432,0,.689,0s.473.008.631.019a.22.22,0,0,0,.266-.214" transform="translate(-262.068 -177.542)"/><path class="a" d="M307.6,189.834l-.778-.752c-.146-.137-.287-.114-.352-.007l.27.362-2.482,1.361,1.192-2.6.246.2a.286.286,0,0,0,.409-.01l-.884-.85c-.134-.127-.315-.146-.4-.008l.22.285-1.574,3.375a.675.675,0,0,0,.772.035L307,189.762c.228.27.417.29.6.071" transform="translate(-271.919 -181.419)"/><path class="a" d="M309.136,199.179l-.156-.418,2.365-1.977c.3.327.43.37.557.233l-.578-.862-3.029.746,1.8-2.559-.4-.594c-.125-.192-.286-.188-.367-.079l.167.46-2.679,1.41-.27-.228a.172.172,0,0,0-.266.02c.1.132.223.318.348.5s.23.35.313.484a.206.206,0,0,0,.314.081l-.22-.507,2.173-1.225-1.755,2.513a.652.652,0,0,0,.566.129l2.669-.681-2,1.7-.277-.247a.184.184,0,0,0-.265.013c.107.135.232.324.356.509s.225.346.309.475a.219.219,0,0,0,.325.1" transform="translate(-273.358 -184.569)"/><path class="a" d="M250.637,271.479l.558.926c.1.175.247.187.332.1l-.163-.424,2.753-.669-1.831,2.2-.182-.252a.283.283,0,0,0-.4-.095l.637,1.048c.091.16.264.22.381.111l-.138-.327,2.392-2.855a.667.667,0,0,0-.739-.235l-3.043.7c-.152-.319-.333-.382-.558-.221" transform="translate(-244.92 -224.114)"/><path class="a" d="M247.343,262.027l.347.949c.073.2.209.276.364.179l-.113-.442,2.428-.883L248.39,264.9l.184.51c.082.232.253.244.349.16l-.09-.46,2.868-1.047.2.283a.166.166,0,0,0,.259.048c-.068-.142-.141-.347-.215-.555s-.149-.427-.2-.581a.216.216,0,0,0-.285-.14l.095.552-2.276.829,1.729-2.65c.156-.238.178-.363.132-.478a.651.651,0,0,0-.124-.225l-3.223,1.176-.108-.2c-.088-.158-.177-.187-.347-.1" transform="translate(-243.236 -219.091)"/><path class="a" d="M249.062,256.478l.051.549-3,.8-.1-.257c-.064-.17-.139-.22-.311-.152.28,1.055.3,1.134.3,1.134.056.211.16.294.318.216l-.079-.442,3.008-.8.156.316c.086.157.188.168.281.1-.052-.153-.121-.409-.19-.662s-.121-.456-.152-.608a.219.219,0,0,0-.284-.2" transform="translate(-242.397 -216.7)"/><path class="a" d="M244.34,250.166l.189,1.07c.035.2.167.256.279.208l0-.448,2.808.352-2.492,1.4-.084-.306a.29.29,0,0,0-.336-.23l.212,1.208c.034.182.169.3.32.242l-.009-.359,3.252-1.806a.675.675,0,0,0-.6-.484l-3.092-.438c-.024-.356-.168-.481-.441-.411" transform="translate(-241.702 -213.47)"/><path class="a" d="M246.493,242.786c-.057.155,0,.294.236.354l.433.117.073,1.378-1.349.141-.106-1.021.377-.02a.248.248,0,0,0-.276-.306c-.256.028-.472.042-.819.064a.23.23,0,0,0,.05.241c.087.07.154.07.337.047l.107,1.027-1.348.142-.087-1.257.534-.145c.025-.149-.057-.29-.229-.261l-.692.112.207,1.954c.057.559.152.585.324.533l0-.418,3.074-.324.113.3a.178.178,0,0,0,.253.1l-.28-2.653Z" transform="translate(-241.392 -209.708)"/><path class="a" d="M247.252,235.125a1.559,1.559,0,0,1-.547.7l-1.127.91a1.165,1.165,0,0,0-1.1-.718c-.612.01-1,.5-.984,1.3.02.979.069,1.368.257,1.364a.283.283,0,0,0,.069-.012l.049-.469,3.082-.054.1.347a.174.174,0,0,0,.227.134c-.014-.245-.014-.417-.022-.652s.008-.459,0-.693a.257.257,0,0,0-.224-.246l-.079.593-1.22.018-.006-.4,1.209-.909c.455-.344.52-.537.514-.872a.33.33,0,0,0-.2-.334m-2.641,1.427a.8.8,0,0,1,.879.866c0,.071,0,.151-.008.234l-1.688.029c-.006-.093-.011-.185-.011-.26a.786.786,0,0,1,.829-.869" transform="translate(-241.269 -205.793)"/><path class="a" d="M246.7,229.659c-.623-.016-.858.319-1.11.982-.185.507-.394.792-.754.782a.626.626,0,0,1-.54-.674,2.16,2.16,0,0,1,.107-.666l.541.028a.267.267,0,0,0-.254-.355l-.6-.061a4.434,4.434,0,0,0-.119.936,1.192,1.192,0,0,0,1.081,1.308c.405,0,.718-.256.949-.836.3-.785.554-.939.89-.939a.718.718,0,0,1,.606.731c-.01.568-.223.819-.762.813a.424.424,0,0,0,.394.469c.486,0,.708-.466.72-1.093a1.324,1.324,0,0,0-1.145-1.426" transform="translate(-241.512 -202.999)"/><path class="a" d="M248.191,225.45l-.186.516-3.066-.541.022-.275c.012-.179-.028-.262-.218-.266-.194,1.072-.2,1.156-.2,1.156-.04.212.021.336.194.332l.113-.431,3.064.535.011.357c.013.176.1.233.215.214.019-.167.064-.431.107-.683s.082-.467.117-.618a.213.213,0,0,0-.171-.3" transform="translate(-241.798 -200.558)"/><path class="a" d="M246.739,217.39l-1.042-.168a11.2,11.2,0,0,1-.313,1.466c-.115.461-.267.923-.415,1.5l.977.373c.081-.16.061-.25-.252-.465l-.285-.194c.048-.248.137-.546.206-.818l2.976.742,0,.407a.173.173,0,0,0,.192.191c.032-.168.108-.465.181-.755.061-.254.129-.49.167-.633a.213.213,0,0,0-.156-.291l-.246.564-2.977-.744a5.94,5.94,0,0,0,.2-.859l.495-.02c.208-.009.3-.081.3-.3" transform="translate(-242.023 -196.643)"/><path class="a" d="M251.954,211.891l-.249.372-3.712-.03c-.041.081-.071.135-.106.211a.343.343,0,0,0,.127.431l2.586,2.23-.028.3a.168.168,0,0,0,.177.175,5.024,5.024,0,0,1,.184-.511c.077-.21.167-.421.229-.574a.222.222,0,0,0-.094-.3l-.3.5-.918-.74.454-1.172,1.169.038-.059.441a.154.154,0,0,0,.158.181c.043-.148.131-.379.221-.609.092-.255.192-.486.255-.639a.217.217,0,0,0-.1-.3m-1.978.884-.378.975-1.274-1.044Z" transform="translate(-243.499 -193.919)"/><path class="a" d="M253.849,204.962c-.548-.291-.907-.1-1.427.376-.4.366-.715.523-1.034.354a.63.63,0,0,1-.176-.848,2.206,2.206,0,0,1,.394-.546l.469.269a.261.261,0,0,0-.06-.427l-.508-.329a4.625,4.625,0,0,0-.534.775,1.2,1.2,0,0,0,.369,1.663c.36.188.76.093,1.228-.316.628-.562.923-.59,1.218-.431a.706.706,0,0,1,.206.925c-.264.5-.57.626-1.043.376a.418.418,0,0,0,.136.594c.428.231.846-.086,1.136-.639a1.329,1.329,0,0,0-.374-1.8" transform="translate(-245.001 -189.79)"/><path class="a" d="M315.547,212.82l-.087-.443,2.691-2.552a.885.885,0,0,0-.076-.227.341.341,0,0,0-.383-.225l-3.413.2-.186-.244a.175.175,0,0,0-.253-.007c.071.136.154.323.231.5.083.206.169.42.228.569a.213.213,0,0,0,.271.151l-.125-.565,1.178-.1.486,1.153-.868.784-.266-.359a.16.16,0,0,0-.24-.023c.075.147.17.368.263.6.111.255.2.485.266.641a.22.22,0,0,0,.282.153m.8-2.008-.411-.968,1.648-.136Z" transform="translate(-277.22 -192.58)"/><path class="a" d="M321.655,218.939l-.261-.978c-.059-.207-.188-.292-.343-.212l.072.45-2.5.668,2.236-2.882-.136-.528c-.069-.238-.231-.263-.332-.192l.042.473-2.943.79-.177-.3a.17.17,0,0,0-.255-.068c.051.147.107.355.162.571s.113.437.151.6a.22.22,0,0,0,.272.164l-.047-.564,2.341-.627-1.957,2.493c-.175.225-.2.342-.175.465a.669.669,0,0,0,.107.229l3.314-.885.09.209c.076.16.161.2.337.127" transform="translate(-278.866 -195.625)"/><path class="a" d="M321.75,227.985a1.749,1.749,0,0,0,1.545-2.256,3.773,3.773,0,0,0-.344-1.445.121.121,0,0,0-.176-.013l.01.47-3.039.423-.128-.309c-.049-.131-.144-.181-.259-.123.025.117.087.515.124.794.042.3.079.685.1.85a1.763,1.763,0,0,0,2.168,1.609M319.9,226.4a3.405,3.405,0,0,1-.042-.728l3.094-.429c.192,1.367-.3,2.055-1.455,2.221a1.314,1.314,0,0,1-1.6-1.064" transform="translate(-280.042 -200.23)"/><path class="a" d="M320.685,235.324l.07-.544,3.1-.164.045.272c.025.183.09.245.275.211-.057-1.084-.063-1.173-.063-1.173-.016-.216-.1-.321-.268-.277l-.012.448-3.107.158-.09-.34c-.05-.169-.151-.2-.258-.159.022.166.038.434.049.69s.023.473.022.626a.225.225,0,0,0,.237.253" transform="translate(-280.562 -205.033)"/><path class="a" d="M323.93,242.364l.056-1.009c.012-.218-.084-.334-.263-.31l-.066.453-2.587-.133,3.023-2.055.029-.54c.012-.252-.138-.327-.252-.288l-.107.464-3.047-.161-.074-.339a.165.165,0,0,0-.218-.144c0,.156-.008.37-.02.594s-.03.448-.042.61a.216.216,0,0,0,.208.242l.125-.547,2.42.128-2.625,1.768c-.236.157-.3.261-.313.386a.591.591,0,0,0,.032.254l3.423.181.026.223c.017.178.086.237.273.226" transform="translate(-280.457 -207.411)"/><path class="a" d="M320.131,249.855c.094-.138.075-.284-.137-.4l-.384-.225.28-1.353,1.342.215-.159,1.014-.377-.078a.251.251,0,0,0,.193.363c.251.039.466.081.809.154a.25.25,0,0,0,.012-.248c-.066-.087-.133-.108-.309-.139l.156-1.015,1.34.212-.24,1.237H322.1c-.06.14-.021.3.148.316l.7.064.309-1.939c.087-.554,0-.6-.178-.6l-.107.405-3.053-.486-.028-.316a.181.181,0,0,0-.219-.167l-.412,2.638Z" transform="translate(-279.994 -211.793)"/><path class="a" d="M320.751,258.413l.261-.974c.051-.211-.014-.349-.2-.359l-.157.427-2.5-.67,3.382-1.377.143-.521c.064-.247-.067-.353-.192-.335l-.2.43-2.945-.788V253.9a.169.169,0,0,0-.189-.186c-.027.152-.08.364-.141.576s-.125.431-.171.594a.218.218,0,0,0,.154.274l.24-.5,2.342.621-2.938,1.186c-.265.1-.354.192-.388.313a.632.632,0,0,0-.02.252l3.312.891-.025.221c-.019.178.039.251.228.28" transform="translate(-278.953 -215.29)"/><path class="a" d="M316.428,264.5c.571.23.911.007,1.385-.526.351-.406.654-.593.99-.463a.632.632,0,0,1,.259.827,2.173,2.173,0,0,1-.336.583l-.493-.212a.261.261,0,0,0,.1.415l.545.275a4.438,4.438,0,0,0,.446-.829,1.2,1.2,0,0,0-.541-1.611c-.376-.15-.763-.019-1.178.441-.569.624-.864.679-1.176.552a.711.711,0,0,1-.3-.9c.211-.524.5-.685,1-.482a.417.417,0,0,0-.2-.577c-.45-.18-.822.177-1.06.757a1.318,1.318,0,0,0,.556,1.746" transform="translate(-278.198 -219.5)"/><path class="a" d="M313.828,268.253l.334-.433,2.745,1.463-.1.255c-.074.167-.056.254.12.323.513-.959.552-1.037.552-1.037.1-.2.086-.327-.085-.376l-.243.374-2.744-1.459.092-.34c.049-.171-.017-.249-.13-.264-.071.15-.2.383-.314.608s-.224.421-.3.552a.215.215,0,0,0,.075.334" transform="translate(-277.151 -221.959)"/><path class="a" d="M312.1,273.054c.532.332.9.164,1.456-.275.421-.335.747-.475,1.053-.282a.631.631,0,0,1,.115.859,2.423,2.423,0,0,1-.427.517l-.455-.3a.26.26,0,0,0,.035.428l.486.362a4.547,4.547,0,0,0,.582-.737,1.192,1.192,0,0,0-.258-1.677c-.341-.218-.743-.151-1.238.228-.664.516-.962.52-1.248.339a.711.711,0,0,1-.143-.934c.3-.479.614-.583,1.07-.3a.42.42,0,0,0-.1-.6c-.409-.257-.844.03-1.179.562a1.323,1.323,0,0,0,.246,1.814" transform="translate(-276.079 -223.914)"/><path class="a" d="M270.728,289.786a.233.233,0,0,0-.373-.02l-.316.3a1.973,1.973,0,0,1-.757-.241c-.655-.351-.928-1.052-.344-2.151a1.3,1.3,0,0,1,1.916-.6,2.05,2.05,0,0,1,.535.394l-.294.463c.123.133.267.129.421-.066l.353-.466a2.578,2.578,0,0,0-.756-.586,1.937,1.937,0,0,0-2.773.822,1.6,1.6,0,0,0,.628,2.431,2.738,2.738,0,0,0,1.253.337Z" transform="translate(-253.812 -232.062)"/><path class="a" d="M278.462,293.225l-.5-.227.751-3.022.251.034c.179.019.277,0,.3-.186-1.058-.265-1.124-.285-1.124-.285-.208-.05-.33,0-.341.168l.411.144-.331,1.3-1.965-.49.329-1.3.291.044c.179.024.281,0,.307-.19-1.061-.261-1.182-.3-1.182-.3-.211-.047-.335,0-.342.172l.42.146-.754,3.023-.39,0a.167.167,0,0,0-.172.193l.711.162c.248.065.423.114.555.153s.3.009.346-.143l-.548-.235.348-1.4,1.965.492-.345,1.394h-.383c-.14,0-.2.093-.183.189.178.038.458.106.732.174.208.051.407.106.55.146a.218.218,0,0,0,.287-.156" transform="translate(-257.076 -233.275)"/><path class="a" d="M287.221,294.073l-.549-.068-.161-3.105.271-.046c.183-.023.247-.084.216-.27l-1.176.061c-.217.009-.319.1-.273.266l.441.022.165,3.1-.343.09c-.171.05-.2.149-.159.253.164-.023.431-.033.688-.048s.471-.024.626-.019a.225.225,0,0,0,.254-.237" transform="translate(-262.756 -234.135)"/><path class="a" d="M293.546,291.6a.253.253,0,0,0-.295.255l-.04.492-1.336.346-.9-2.929.314-.127c.167-.07.234-.153.162-.33l-1.184.362c-.207.065-.285.177-.206.329l.416-.082.912,2.967-.285.176a.162.162,0,0,0-.036.254l2.558-.782Z" transform="translate(-265.054 -233.482)"/><path class="a" d="M299.49,288.136c-.163.014-.267.122-.225.365l.072.44-1.228.63-.682-1.18.891-.511.173.341a.252.252,0,0,0,.167-.378c-.131-.221-.232-.413-.394-.723a.229.229,0,0,0-.2.144c-.03.106,0,.168.092.327l-.9.517-.679-1.178,1.115-.587.35.432c.147-.042.242-.176.147-.318l-.382-.586-1.7.98c-.493.285-.476.378-.357.515l.382-.174,1.545,2.677-.23.226a.179.179,0,0,0,.009.272l2.315-1.335Z" transform="translate(-267.941 -231.726)"/><path class="a" d="M260.529,281.426a.775.775,0,1,1,.774.772.774.774,0,0,1-.774-.772" transform="translate(-249.975 -229.059)"/><path class="a" d="M308.188,281.426a.772.772,0,1,1,.773.772.773.773,0,0,1-.773-.772" transform="translate(-274.332 -229.059)"/><path class="a" d="M285.245,214.16a32.6,32.6,0,0,0-1.466-9.788C280.843,195,274.8,190.7,269.878,190.7s-10.992,4.321-13.913,13.726a33.336,33.336,0,0,0-1.459,9.856c0,15.324,8.862,23.584,15.373,23.584s15.367-8.382,15.367-23.7m-15.634-.147H255.039a32.913,32.913,0,0,1,1.432-9.431c2.828-9.1,8.557-13.194,13.14-13.348Zm0,23.317c-6.042-.227-14.469-8-14.572-22.778h14.572Zm.533-22.778h14.568c-.146,14.7-8.549,22.551-14.568,22.778Zm14.568-.538H270.144V191.234c4.573.154,10.285,4.236,13.124,13.3a31.891,31.891,0,0,1,1.445,9.48" transform="translate(-246.897 -183.088)"/><path class="a" d="M294.567,254.32h4.067a.268.268,0,0,0,.251-.266v-4.489c0-.116,0-.213.228-.213.205,0,.218.109.218.213v4.794a.352.352,0,0,1-.4.4h-8.728a.352.352,0,0,1-.4-.4v-4.794c0-.1.012-.213.216-.213.228,0,.228.1.228.213v4.489a.273.273,0,0,0,.256.266Z" transform="translate(-264.939 -213.063)"/><path class="a" d="M295.484,252.331h3.145c.478,0,.448-.221.264-.31a4.206,4.206,0,0,0-3.011,0c-.314.168-.26-.144-.26-.269v-4.011c0-.221.255-.846,2.515-.76,1.219.048,1.233.275,1.233.439v4.943a.351.351,0,0,1-.374.375h-7.028a.351.351,0,0,1-.373-.375v-4.943c0-.164.011-.4,1.233-.439,2.263-.074,2.516.539,2.516.76v4.011c0,.126.051.438-.261.269a4.2,4.2,0,0,0-3.008,0c-.187.088-.218.31.264.31Z" transform="translate(-265.852 -211.847)"/><path class="a" d="M299.693,217.28c-.08-.11-.284.013-.466,0a13.37,13.37,0,0,1-1.4-.364,3.672,3.672,0,0,1-.4-.118c.681-.246,1.093-1.085.73-1.27-.122-.061-.207.169-.354.254-.4.243-.741-.041-1.145.209a1.947,1.947,0,0,0,.369-.677c.225-.5.586-1.4.205-1.41-.132-.006-.16.232-.277.366-.362.406-.759.507-1.126.859-.111.1-.231.2-.3.261.2-.7-.257-1.53-.616-1.344-.121.063.014.266,0,.437-.038.455-.453.57-.509,1.008a1.771,1.771,0,0,0-.324-.7c-.278-.486-.784-1.3-1.018-1-.085.109.09.27.128.442a12.407,12.407,0,0,1,.028,1.387c.013.1.026.212.044.318-.42-.561-1.29-.738-1.38-.354-.024.136.214.162.336.285.321.319.149.707.45,1.032a1.892,1.892,0,0,0-.748-.195c-.547-.1-1.5-.234-1.417.136.028.137.26.1.422.187.478.247.675.609,1.079.868.086.057.177.121.268.176-.7-.012-1.379.564-1.129.867.09.106.26-.068.43-.09.453-.055.651.323,1.091.28a1.983,1.983,0,0,0-.62.467c-.413.378-1.1,1.039-.762,1.21.12.061.242-.146.4-.222a12.223,12.223,0,0,1,1.348-.315c.1-.033.208-.066.3-.106-.464.525-.456,1.411-.057,1.414.135.005.112-.237.2-.381.248-.385.663-.29.918-.654a1.857,1.857,0,0,0-.036.773c.019.555.084,1.513.431,1.359.123-.054.043-.28.089-.454a12.33,12.33,0,0,1,.625-1.236,1.848,1.848,0,0,0,.107-.313c.1.717.837,1.293,1.089.977.083-.1-.123-.237-.176-.4-.152-.427.179-.7.048-1.129a1.915,1.915,0,0,0,.588.51c.45.329,1.242.866,1.334.5.035-.134-.194-.209-.3-.356a11.538,11.538,0,0,1-.589-1.246,1.54,1.54,0,0,1-.151-.314c.631.392,1.577.2,1.491-.213-.025-.141-.266-.063-.431-.126-.421-.158-.432-.574-.813-.762a2.148,2.148,0,0,0,.74-.128c.537-.137,1.459-.4,1.24-.706m-2.306.775a2.3,2.3,0,1,1-2.3-2.305,2.3,2.3,0,0,1,2.3,2.305" transform="translate(-265.292 -194.859)"/><path class="a" d="M296.082,220.637a1.856,1.856,0,1,1,1.855,1.852,1.853,1.853,0,0,1-1.855-1.852" transform="translate(-268.145 -197.441)"/><path class="a" d="M265.83,247.062l.538-.521h-.4a.278.278,0,0,0-.275.279.293.293,0,0,0,.142.243m3.04,0a.3.3,0,0,0,.148-.243.283.283,0,0,0-.283-.279h-.4Zm-1.529-1.212a.777.777,0,0,1,.437.1.88.88,0,0,1,.3.241h.829a.573.573,0,0,1,.51.4.83.83,0,0,1-.28.78c.174.155,1.719,1.673,1.9,1.85a1.193,1.193,0,0,1,.273,1.164c-.072.274-.261.37-.418.245-.123-.1-2.153-2.648-2.153-2.648s-.065-.085-.115-.047-.023.078.01.135,2.1,2.853,2.1,2.853a.924.924,0,0,1,.156.674c-.069.26-.452.846-.772.927a.49.49,0,0,1-.587-.288c-.37-.974-1.343-3.911-1.343-3.911s-.068-.2-.164-.177-.035.217-.035.217,1.167,3.745,1.3,4.159a.665.665,0,0,1-.137.687,1.716,1.716,0,0,1-1.064.467c-.073,0-.506-.022-.539-.4-.039-.518-.081-4.861-.081-4.861s-.011-.19-.116-.19-.116.192-.116.192-.042,4.34-.083,4.858c-.029.383-.464.406-.537.406a1.747,1.747,0,0,1-1.068-.464.666.666,0,0,1-.132-.685c.123-.42,1.291-4.165,1.291-4.165s.061-.193-.036-.217-.16.183-.16.183-.978,2.936-1.343,3.9a.5.5,0,0,1-.587.294,1.673,1.673,0,0,1-.773-.933.926.926,0,0,1,.158-.672s2.071-2.795,2.1-2.854.06-.1.006-.137-.118.047-.118.047-2.023,2.55-2.149,2.648c-.16.124-.351.028-.419-.246a1.2,1.2,0,0,1,.273-1.164c.185-.177,1.724-1.691,1.9-1.85a.827.827,0,0,1-.277-.778.579.579,0,0,1,.508-.4h.833a1,1,0,0,1,.3-.241.777.777,0,0,1,.424-.1" transform="translate(-251.412 -211.274)"/><path class="a" d="M267.468,216.681a6.5,6.5,0,0,1-.566.85c-.245.259.372.322.532.117.141-.192.445-.714.445-.714s.013-.407-.123-.51-.288.257-.288.257m1.837,5.622a.2.2,0,0,1-.039.287.184.184,0,0,1-.28-.031l-.507-.623c-.511.123-1.39-.727-1.676-.868-.305-.157-.809.755-1.077.133-.565-1.306-2.112.844-2.642.8s.095-.684-.023-1.113-.623,0-1.053.116a4.32,4.32,0,0,1-.543.1l-1.225,1.517a.18.18,0,0,1-.275.025.194.194,0,0,1-.04-.283l4.052-5.289a2.341,2.341,0,0,1,.24-.308c.342-.36.677-.47,1.149.047a12.354,12.354,0,0,1,.737,1c.3-.493,1.05-1.432,1.256-1.754a.493.493,0,0,1,.787-.111c.339.277,1.233,1.563,1.772,2.061a.315.315,0,0,1,.08.085l.569.572a.2.2,0,0,1-.014.288.179.179,0,0,1-.276,0l-.57-.576a1.448,1.448,0,0,1-.556.005c-.259-.066-.682-.452-.52.308.051.254.121.368-.207.4s-1.332-.893-1.549-.586a1.472,1.472,0,0,1-.176.208c.315.518,2.605,3.591,2.605,3.591m-5.063-3.116c-.01-.429-.04-.4.195-.751a2.935,2.935,0,0,0,.25-1.035c.038-.194-.184-.24-.25-.026-.077.156-.251.328-.347.5-.313.381-.823,1.121-1,1.41-.113.18-.68.59-.595.879.048.16.34.148.666-.192.178-.205.225-.262.371-.27.252.029,0,.26.288.332.316.084.427-.576.423-.842" transform="translate(-249.645 -195.916)"/></g><g transform="translate(50 16)"><path class="a" d="M350.315,254.074l0-17.426h-3.332v17.426Z" transform="translate(-294.161 -206.571)"/><path class="a" d="M370.737,252.946a6.186,6.186,0,1,0-6.178,6.5,6.207,6.207,0,0,0,6.178-6.5m-3.276,0c0,2.2-1.319,3.988-2.9,3.988s-2.9-1.788-2.9-3.988c0-2.159,1.313-3.955,2.9-3.955s2.9,1.8,2.9,3.955" transform="translate(-299.984 -211.595)"/><path class="a" d="M396.516,247.583a7.28,7.28,0,0,0-2.689-1.027,10.162,10.162,0,0,0-2.039-.24c-2.983,0-4.993,1.563-4.993,3.858,0,1.635,1.007,2.8,3.176,3.617l2.11.815c.841.319,1.24.744,1.24,1.293,0,.662-.708,1.063-1.926,1.063a4.434,4.434,0,0,1-1.373-.24,10.486,10.486,0,0,1-2.637-1.29l-1.009,2.554a10.391,10.391,0,0,0,3.036,1.141,9.944,9.944,0,0,0,2.01.235c2.957,0,4.912-1.477,4.912-3.727a3.392,3.392,0,0,0-1.268-2.717,19.142,19.142,0,0,0-3.7-1.692c-1.107-.39-1.531-.734-1.531-1.291,0-.688.788-1.165,2.009-1.165a5.739,5.739,0,0,1,2.826.851c.241.132.521.314.838.529Z" transform="translate(-314.291 -211.512)"/><path class="a" d="M438.256,254.074l-6.309-17.426h-2.982l-6.307,17.426h3.485l1.419-4.3h5.84l1.375,4.3Zm-5.757-7.128H428.46l2.006-6.305Z" transform="translate(-332.833 -206.571)"/><path class="a" d="M469.232,259.207V250.18c0-2.319-1.1-3.488-3.317-3.488-1.567,0-2.781.662-4.261,2.27V246.93h-3.162v12.277h3.162v-7.385l.426-.455c1.367-1.48,2.19-1.537,2.853-1.507.628.027,1.133-.075,1.133,1.455v7.892Z" transform="translate(-351.146 -211.704)"/><path class="a" d="M497.1,253.116V234.774l-3.15.906v5.662a3.577,3.577,0,0,0-1.633-.74,3.98,3.98,0,0,0-1.08-.129c-3.249,0-5.86,3.06-5.86,6.867,0,3.534,2.133,6.123,5.039,6.123a4.191,4.191,0,0,0,2.3-.69,3.307,3.307,0,0,0,1.236-1.318v1.661Zm-3.15-4.09a3.436,3.436,0,0,1-2.713,1.848c-1.509,0-2.536-1.552-2.536-3.775,0-2.321,1.293-4.038,3.035-4.038a2.1,2.1,0,0,1,2.06,1.135,6.7,6.7,0,0,1,.153,1.58Z" transform="translate(-364.887 -205.613)"/><path class="a" d="M525.272,257.913l-1.163-2.4a8.141,8.141,0,0,1-2.352,1.158,4.773,4.773,0,0,1-1.449.215,3.18,3.18,0,0,1-2.744-1.482,3.786,3.786,0,0,1-.422-1.955h8.131V252.1c0-3.32-2.11-5.623-5.148-5.623-3.517,0-6.152,2.93-6.152,6.814,0,3.752,2.3,6.152,5.943,6.152a9.6,9.6,0,0,0,4.038-.876c.291-.127.739-.338,1.319-.656m-3.169-6.442h-4.8c.262-1.661,1.207-2.618,2.614-2.618,1.473,0,2.108.742,2.188,2.618" transform="translate(-379.5 -211.596)"/><path class="a" d="M549.583,247.583a7.3,7.3,0,0,0-2.692-1.027,10.179,10.179,0,0,0-2.04-.24c-2.984,0-4.99,1.563-4.99,3.858,0,1.635,1.007,2.8,3.175,3.617l2.109.815c.848.319,1.24.744,1.24,1.293,0,.662-.715,1.063-1.925,1.063a4.418,4.418,0,0,1-1.374-.24,10.594,10.594,0,0,1-2.64-1.29l-1,2.554a10.279,10.279,0,0,0,3.036,1.141,9.9,9.9,0,0,0,2.009.235c2.958,0,4.9-1.477,4.9-3.727a3.406,3.406,0,0,0-1.261-2.717,19.142,19.142,0,0,0-3.7-1.692c-1.108-.39-1.535-.734-1.535-1.291,0-.688.792-1.165,2.008-1.165a5.708,5.708,0,0,1,2.827.851c.236.132.529.314.841.529Z" transform="translate(-392.518 -211.512)"/><path class="a" d="M353.51,211.629V205.9h-1.063V211.3c0,1.067-.074,1.363-.49,1.819a2.345,2.345,0,0,1-1.8.738,2.316,2.316,0,0,1-1.783-.738c-.419-.456-.5-.752-.5-1.819V205.9h-1.059v5.733a2.728,2.728,0,0,0,1,2.388,3.649,3.649,0,0,0,2.364.792,3.609,3.609,0,0,0,2.351-.792,2.711,2.711,0,0,0,.983-2.388" transform="translate(-294.071 -190.855)"/><path class="a" d="M370.139,217.3v-4.4c0-1.1-.509-1.64-1.544-1.64a2.453,2.453,0,0,0-1.57.588,5.086,5.086,0,0,0-.806.8V211.42h-.978V217.3h.978V213.71c1.026-1.133,1.663-1.572,2.258-1.572a.631.631,0,0,1,.6.31,1.65,1.65,0,0,1,.093.69V217.3Z" transform="translate(-303.489 -193.598)"/><path class="a" d="M380.7,206.719a.636.636,0,1,0-.636.641.636.636,0,0,0,.636-.641m-.159,2.055h-.973v5.884h.973Z" transform="translate(-310.742 -190.951)"/><path class="a" d="M389.835,211.584h-1.061l-1.6,4.781-.019.228-.022-.243-1.621-4.767h-1.068l2.207,6.057h.9Z" transform="translate(-313.303 -193.762)"/><path class="a" d="M402.056,214.284v-.575a2.227,2.227,0,0,0-2.276-2.446c-1.674,0-2.782,1.234-2.782,3.109,0,1.853,1.107,3.1,2.744,3.1a3.566,3.566,0,0,0,2.13-.716l-.394-.764a2.453,2.453,0,0,1-1.531.58c-1.2,0-1.924-.867-1.924-2.293Zm-1.07-.732h-2.88a1.605,1.605,0,0,1,1.612-1.4c.808,0,1.259.487,1.269,1.4" transform="translate(-319.719 -193.598)"/><path class="a" d="M413.857,211.668a1.143,1.143,0,0,0-.755-.4c-.442,0-.8.287-1.529,1.222v-1.069H410.6V217.3h.978v-3.5c.555-1.018,1.022-1.549,1.39-1.549.119,0,.218.064.416.234Z" transform="translate(-326.668 -193.598)"/><path class="a" d="M423.09,215.783c0-.918-.346-1.324-1.6-1.846-1.063-.44-1.221-.527-1.455-.76a.525.525,0,0,1-.143-.367c0-.44.428-.742,1.094-.742a2.688,2.688,0,0,1,.675.105,2.649,2.649,0,0,1,.843.39l.485-.793a3.336,3.336,0,0,0-1.145-.439,4.974,4.974,0,0,0-.756-.067c-1.376,0-2.238.638-2.238,1.666,0,.711.392,1.115,1.537,1.594,1.051.433,1.323.6,1.559.934a.8.8,0,0,1,.119.406c0,.458-.444.78-1.036.78a3.473,3.473,0,0,1-1.354-.322c-.107-.053-.246-.134-.444-.238l-.4.823a4.251,4.251,0,0,0,1.391.49,4.827,4.827,0,0,0,.819.08c1.283,0,2.051-.639,2.051-1.694" transform="translate(-330.877 -193.598)"/><path class="a" d="M432.394,206.719a.639.639,0,0,0-1.278,0,.639.639,0,1,0,1.278,0m-.155,2.055h-.978v5.884h.978Z" transform="translate(-337.156 -190.951)"/><path class="a" d="M442.221,214.561V205.9h-.988v3.029a2.121,2.121,0,0,0-1.4-.4,3.032,3.032,0,0,0-3,3.26c0,1.746,1.013,2.953,2.457,2.953a2.588,2.588,0,0,0,1.947-.915v.743Zm-.988-1.793a3.213,3.213,0,0,1-.636.64,2.171,2.171,0,0,1-1.146.4c-.908,0-1.571-.855-1.571-2.037a2.049,2.049,0,0,1,2.051-2.313,1.239,1.239,0,0,1,1.18.5,1.44,1.44,0,0,1,.122.774Z" transform="translate(-340.075 -190.855)"/><path class="a" d="M456.258,216.658q-.448-.085-.487-.314v-3.611c0-.906-.745-1.469-1.917-1.469-1.259,0-2.127.538-2.127,1.312a.574.574,0,0,0,.116.366l.986-.21a.611.611,0,0,1-.059-.22c0-.339.291-.508.9-.508.759,0,1.119.251,1.119.728V213.8l-2.039.483a1.557,1.557,0,0,0-1.313,1.632A1.471,1.471,0,0,0,453,217.467a2.62,2.62,0,0,0,1.248-.34,3.308,3.308,0,0,0,.625-.468c.051.554.334.764,1.144.819Zm-1.47-.821c-.847.616-1.147.755-1.58.755a.737.737,0,0,1-.8-.767,1.168,1.168,0,0,1,.168-.637l2.213-.574Z" transform="translate(-347.54 -193.598)"/><path class="a" d="M469.171,214.561V205.9h-.991v3.029a2.115,2.115,0,0,0-1.4-.4,3.027,3.027,0,0,0-3,3.26c0,1.746,1.013,2.953,2.453,2.953a2.571,2.571,0,0,0,1.95-.915v.743Zm-.991-1.793a3.293,3.293,0,0,1-.632.64,2.207,2.207,0,0,1-1.148.4c-.9,0-1.566-.855-1.566-2.037a2.047,2.047,0,0,1,2.049-2.313,1.235,1.235,0,0,1,1.177.5,1.484,1.484,0,0,1,.12.774Z" transform="translate(-353.847 -190.855)"/><path class="a" d="M490.125,214.561V205.9h-.992v3.029a2.107,2.107,0,0,0-1.4-.4,3.033,3.033,0,0,0-3.005,3.26c0,1.746,1.014,2.953,2.458,2.953a2.57,2.57,0,0,0,1.944-.915v.743Zm-.992-1.793a3.039,3.039,0,0,1-.634.64,2.19,2.19,0,0,1-1.143.4c-.907,0-1.572-.855-1.572-2.037a2.049,2.049,0,0,1,2.052-2.313,1.255,1.255,0,0,1,1.186.5,1.572,1.572,0,0,1,.112.774Z" transform="translate(-364.556 -190.855)"/><path class="a" d="M504.092,214.284v-.575a2.224,2.224,0,0,0-2.266-2.446,2.79,2.79,0,0,0-2.789,3.109c0,1.853,1.111,3.1,2.745,3.1a3.533,3.533,0,0,0,2.128-.716l-.388-.764a2.435,2.435,0,0,1-1.528.58c-1.2,0-1.926-.867-1.926-2.293Zm-1.061-.732h-2.883a1.6,1.6,0,0,1,1.61-1.4c.81,0,1.262.487,1.273,1.4" transform="translate(-371.867 -193.598)"/><path class="a" d="M241.47,194.422a39.458,39.458,0,0,0-1.765,11.783v.121c0,17.041,10.145,30.434,22.217,30.434s22.22-13.393,22.22-30.434v-.121a39.4,39.4,0,0,0-1.785-11.846c-3.441-10.989-11.388-18.464-20.436-18.464s-17.02,7.5-20.452,18.526m-2.526,11.783a40.17,40.17,0,0,1,1.8-12.01c3.488-11.2,11.656-19.062,21.176-19.062s17.661,7.829,21.162,19a40.213,40.213,0,0,1,1.822,12.073v.121c0,17.228-10.29,31.194-22.984,31.194s-22.978-13.966-22.978-31.194Z" transform="translate(-238.944 -175.133)"/><path class="a" d="M278.744,182.189a1.756,1.756,0,0,0-2.41-1.3,3.535,3.535,0,0,0-1.394.5.127.127,0,0,0,0,.176l.47-.06.739,2.974-.3.16c-.124.066-.162.163-.1.272.118-.035.509-.139.78-.206.294-.077.674-.147.838-.186a1.769,1.769,0,0,0,1.37-2.331m-1.383,2.015a2.952,2.952,0,0,1-.716.113l-.746-3.026c1.334-.335,2.077.082,2.359,1.218a1.3,1.3,0,0,1-.9,1.694" transform="translate(-257.322 -178.028)"/><path class="a" d="M292.958,183.185a1.479,1.479,0,0,0-.971-2.118,1.912,1.912,0,0,0-2.472,1.447,1.5,1.5,0,0,0,.915,2.121,1.917,1.917,0,0,0,2.527-1.45m-.6.067c-.317.972-.938,1.306-1.615,1.086s-.976-.848-.623-1.926c.273-.846.851-1.28,1.567-1.049.833.271.953,1.035.672,1.889" transform="translate(-264.723 -178.112)"/><path class="a" d="M299.139,188.405a1.647,1.647,0,0,1-.281-.848l-.152-1.439a1.17,1.17,0,0,0,1.2-.53c.327-.516.125-1.107-.554-1.529-.829-.52-1.183-.686-1.282-.53-.014.024-.019.044-.03.067l.365.3-1.632,2.609-.343-.1a.178.178,0,0,0-.242.12c.213.121.359.211.559.332s.386.254.588.38a.242.242,0,0,0,.324-.06l-.454-.382.65-1.033.341.212.1,1.515c.044.569.171.726.453.9a.328.328,0,0,0,.387.017m.247-3a.793.793,0,0,1-1.2.266c-.06-.038-.127-.087-.193-.135l.892-1.43c.082.042.161.094.228.133a.785.785,0,0,1,.272,1.166" transform="translate(-268.202 -179.395)"/><path class="a" d="M259.6,195.613c-.475-.4-.871-.293-1.477.066-.465.275-.805.364-1.083.136a.634.634,0,0,1,0-.869,2.1,2.1,0,0,1,.5-.452l.4.361a.259.259,0,0,0,.029-.43l-.431-.427a4.641,4.641,0,0,0-.68.647,1.2,1.2,0,0,0,.021,1.7c.307.256.714.251,1.255-.057.732-.417,1.028-.381,1.283-.165a.719.719,0,0,1,.017.949c-.363.433-.693.492-1.107.149a.428.428,0,0,0,.011.612c.37.31.84.088,1.247-.4a1.315,1.315,0,0,0,.008-1.824" transform="translate(-247.925 -184.775)"/><path class="a" d="M263.061,188.863l-.793-.7a10.421,10.421,0,0,1-1.039,1.081c-.341.329-.713.639-1.146,1.06l.623.83c.155-.1.186-.184.039-.527l-.143-.316c.172-.184.4-.394.609-.588l2.135,2.211-.22.341a.174.174,0,0,0,.062.27c.111-.127.334-.345.549-.55.185-.182.367-.348.479-.448a.215.215,0,0,0,.022-.33l-.506.346-2.132-2.209a5.655,5.655,0,0,0,.619-.622l.434.243a.254.254,0,0,0,.409-.1" transform="translate(-249.747 -181.795)"/><path class="a" d="M269.259,182.945l-.936.544c-.173.1-.192.243-.109.335l.425-.157.628,2.758-2.169-1.86.256-.184a.287.287,0,0,0,.1-.393l-1.063.613c-.159.092-.226.262-.116.383l.332-.133,2.81,2.441a.677.677,0,0,0,.251-.74l-.648-3.049c.329-.147.394-.327.237-.557" transform="translate(-252.886 -179.125)"/><path class="a" d="M285.791,183.367l-.541-.109.052-3.107.276-.024c.183-.013.251-.069.231-.258-1.085-.019-1.174-.022-1.174-.022-.214,0-.326.078-.3.248l.446.048-.057,3.107-.344.069c-.176.036-.217.132-.179.242.164-.008.432,0,.689,0s.473.008.631.019a.22.22,0,0,0,.266-.214" transform="translate(-262.068 -177.542)"/><path class="a" d="M307.6,189.834l-.778-.752c-.146-.137-.287-.114-.352-.007l.27.362-2.482,1.361,1.192-2.6.246.2a.286.286,0,0,0,.409-.01l-.884-.85c-.134-.127-.315-.146-.4-.008l.22.285-1.574,3.375a.675.675,0,0,0,.772.035L307,189.762c.228.27.417.29.6.071" transform="translate(-271.919 -181.419)"/><path class="a" d="M309.136,199.179l-.156-.418,2.365-1.977c.3.327.43.37.557.233l-.578-.862-3.029.746,1.8-2.559-.4-.594c-.125-.192-.286-.188-.367-.079l.167.46-2.679,1.41-.27-.228a.172.172,0,0,0-.266.02c.1.132.223.318.348.5s.23.35.313.484a.206.206,0,0,0,.314.081l-.22-.507,2.173-1.225-1.755,2.513a.652.652,0,0,0,.566.129l2.669-.681-2,1.7-.277-.247a.184.184,0,0,0-.265.013c.107.135.232.324.356.509s.225.346.309.475a.219.219,0,0,0,.325.1" transform="translate(-273.358 -184.569)"/><path class="a" d="M250.637,271.479l.558.926c.1.175.247.187.332.1l-.163-.424,2.753-.669-1.831,2.2-.182-.252a.283.283,0,0,0-.4-.095l.637,1.048c.091.16.264.22.381.111l-.138-.327,2.392-2.855a.667.667,0,0,0-.739-.235l-3.043.7c-.152-.319-.333-.382-.558-.221" transform="translate(-244.92 -224.114)"/><path class="a" d="M247.343,262.027l.347.949c.073.2.209.276.364.179l-.113-.442,2.428-.883L248.39,264.9l.184.51c.082.232.253.244.349.16l-.09-.46,2.868-1.047.2.283a.166.166,0,0,0,.259.048c-.068-.142-.141-.347-.215-.555s-.149-.427-.2-.581a.216.216,0,0,0-.285-.14l.095.552-2.276.829,1.729-2.65c.156-.238.178-.363.132-.478a.651.651,0,0,0-.124-.225l-3.223,1.176-.108-.2c-.088-.158-.177-.187-.347-.1" transform="translate(-243.236 -219.091)"/><path class="a" d="M249.062,256.478l.051.549-3,.8-.1-.257c-.064-.17-.139-.22-.311-.152.28,1.055.3,1.134.3,1.134.056.211.16.294.318.216l-.079-.442,3.008-.8.156.316c.086.157.188.168.281.1-.052-.153-.121-.409-.19-.662s-.121-.456-.152-.608a.219.219,0,0,0-.284-.2" transform="translate(-242.397 -216.7)"/><path class="a" d="M244.34,250.166l.189,1.07c.035.2.167.256.279.208l0-.448,2.808.352-2.492,1.4-.084-.306a.29.29,0,0,0-.336-.23l.212,1.208c.034.182.169.3.32.242l-.009-.359,3.252-1.806a.675.675,0,0,0-.6-.484l-3.092-.438c-.024-.356-.168-.481-.441-.411" transform="translate(-241.702 -213.47)"/><path class="a" d="M246.493,242.786c-.057.155,0,.294.236.354l.433.117.073,1.378-1.349.141-.106-1.021.377-.02a.248.248,0,0,0-.276-.306c-.256.028-.472.042-.819.064a.23.23,0,0,0,.05.241c.087.07.154.07.337.047l.107,1.027-1.348.142-.087-1.257.534-.145c.025-.149-.057-.29-.229-.261l-.692.112.207,1.954c.057.559.152.585.324.533l0-.418,3.074-.324.113.3a.178.178,0,0,0,.253.1l-.28-2.653Z" transform="translate(-241.392 -209.708)"/><path class="a" d="M247.252,235.125a1.559,1.559,0,0,1-.547.7l-1.127.91a1.165,1.165,0,0,0-1.1-.718c-.612.01-1,.5-.984,1.3.02.979.069,1.368.257,1.364a.283.283,0,0,0,.069-.012l.049-.469,3.082-.054.1.347a.174.174,0,0,0,.227.134c-.014-.245-.014-.417-.022-.652s.008-.459,0-.693a.257.257,0,0,0-.224-.246l-.079.593-1.22.018-.006-.4,1.209-.909c.455-.344.52-.537.514-.872a.33.33,0,0,0-.2-.334m-2.641,1.427a.8.8,0,0,1,.879.866c0,.071,0,.151-.008.234l-1.688.029c-.006-.093-.011-.185-.011-.26a.786.786,0,0,1,.829-.869" transform="translate(-241.269 -205.793)"/><path class="a" d="M246.7,229.659c-.623-.016-.858.319-1.11.982-.185.507-.394.792-.754.782a.626.626,0,0,1-.54-.674,2.16,2.16,0,0,1,.107-.666l.541.028a.267.267,0,0,0-.254-.355l-.6-.061a4.434,4.434,0,0,0-.119.936,1.192,1.192,0,0,0,1.081,1.308c.405,0,.718-.256.949-.836.3-.785.554-.939.89-.939a.718.718,0,0,1,.606.731c-.01.568-.223.819-.762.813a.424.424,0,0,0,.394.469c.486,0,.708-.466.72-1.093a1.324,1.324,0,0,0-1.145-1.426" transform="translate(-241.512 -202.999)"/><path class="a" d="M248.191,225.45l-.186.516-3.066-.541.022-.275c.012-.179-.028-.262-.218-.266-.194,1.072-.2,1.156-.2,1.156-.04.212.021.336.194.332l.113-.431,3.064.535.011.357c.013.176.1.233.215.214.019-.167.064-.431.107-.683s.082-.467.117-.618a.213.213,0,0,0-.171-.3" transform="translate(-241.798 -200.558)"/><path class="a" d="M246.739,217.39l-1.042-.168a11.2,11.2,0,0,1-.313,1.466c-.115.461-.267.923-.415,1.5l.977.373c.081-.16.061-.25-.252-.465l-.285-.194c.048-.248.137-.546.206-.818l2.976.742,0,.407a.173.173,0,0,0,.192.191c.032-.168.108-.465.181-.755.061-.254.129-.49.167-.633a.213.213,0,0,0-.156-.291l-.246.564-2.977-.744a5.94,5.94,0,0,0,.2-.859l.495-.02c.208-.009.3-.081.3-.3" transform="translate(-242.023 -196.643)"/><path class="a" d="M251.954,211.891l-.249.372-3.712-.03c-.041.081-.071.135-.106.211a.343.343,0,0,0,.127.431l2.586,2.23-.028.3a.168.168,0,0,0,.177.175,5.024,5.024,0,0,1,.184-.511c.077-.21.167-.421.229-.574a.222.222,0,0,0-.094-.3l-.3.5-.918-.74.454-1.172,1.169.038-.059.441a.154.154,0,0,0,.158.181c.043-.148.131-.379.221-.609.092-.255.192-.486.255-.639a.217.217,0,0,0-.1-.3m-1.978.884-.378.975-1.274-1.044Z" transform="translate(-243.499 -193.919)"/><path class="a" d="M253.849,204.962c-.548-.291-.907-.1-1.427.376-.4.366-.715.523-1.034.354a.63.63,0,0,1-.176-.848,2.206,2.206,0,0,1,.394-.546l.469.269a.261.261,0,0,0-.06-.427l-.508-.329a4.625,4.625,0,0,0-.534.775,1.2,1.2,0,0,0,.369,1.663c.36.188.76.093,1.228-.316.628-.562.923-.59,1.218-.431a.706.706,0,0,1,.206.925c-.264.5-.57.626-1.043.376a.418.418,0,0,0,.136.594c.428.231.846-.086,1.136-.639a1.329,1.329,0,0,0-.374-1.8" transform="translate(-245.001 -189.79)"/><path class="a" d="M315.547,212.82l-.087-.443,2.691-2.552a.885.885,0,0,0-.076-.227.341.341,0,0,0-.383-.225l-3.413.2-.186-.244a.175.175,0,0,0-.253-.007c.071.136.154.323.231.5.083.206.169.42.228.569a.213.213,0,0,0,.271.151l-.125-.565,1.178-.1.486,1.153-.868.784-.266-.359a.16.16,0,0,0-.24-.023c.075.147.17.368.263.6.111.255.2.485.266.641a.22.22,0,0,0,.282.153m.8-2.008-.411-.968,1.648-.136Z" transform="translate(-277.22 -192.58)"/><path class="a" d="M321.655,218.939l-.261-.978c-.059-.207-.188-.292-.343-.212l.072.45-2.5.668,2.236-2.882-.136-.528c-.069-.238-.231-.263-.332-.192l.042.473-2.943.79-.177-.3a.17.17,0,0,0-.255-.068c.051.147.107.355.162.571s.113.437.151.6a.22.22,0,0,0,.272.164l-.047-.564,2.341-.627-1.957,2.493c-.175.225-.2.342-.175.465a.669.669,0,0,0,.107.229l3.314-.885.09.209c.076.16.161.2.337.127" transform="translate(-278.866 -195.625)"/><path class="a" d="M321.75,227.985a1.749,1.749,0,0,0,1.545-2.256,3.773,3.773,0,0,0-.344-1.445.121.121,0,0,0-.176-.013l.01.47-3.039.423-.128-.309c-.049-.131-.144-.181-.259-.123.025.117.087.515.124.794.042.3.079.685.1.85a1.763,1.763,0,0,0,2.168,1.609M319.9,226.4a3.405,3.405,0,0,1-.042-.728l3.094-.429c.192,1.367-.3,2.055-1.455,2.221a1.314,1.314,0,0,1-1.6-1.064" transform="translate(-280.042 -200.23)"/><path class="a" d="M320.685,235.324l.07-.544,3.1-.164.045.272c.025.183.09.245.275.211-.057-1.084-.063-1.173-.063-1.173-.016-.216-.1-.321-.268-.277l-.012.448-3.107.158-.09-.34c-.05-.169-.151-.2-.258-.159.022.166.038.434.049.69s.023.473.022.626a.225.225,0,0,0,.237.253" transform="translate(-280.562 -205.033)"/><path class="a" d="M323.93,242.364l.056-1.009c.012-.218-.084-.334-.263-.31l-.066.453-2.587-.133,3.023-2.055.029-.54c.012-.252-.138-.327-.252-.288l-.107.464-3.047-.161-.074-.339a.165.165,0,0,0-.218-.144c0,.156-.008.37-.02.594s-.03.448-.042.61a.216.216,0,0,0,.208.242l.125-.547,2.42.128-2.625,1.768c-.236.157-.3.261-.313.386a.591.591,0,0,0,.032.254l3.423.181.026.223c.017.178.086.237.273.226" transform="translate(-280.457 -207.411)"/><path class="a" d="M320.131,249.855c.094-.138.075-.284-.137-.4l-.384-.225.28-1.353,1.342.215-.159,1.014-.377-.078a.251.251,0,0,0,.193.363c.251.039.466.081.809.154a.25.25,0,0,0,.012-.248c-.066-.087-.133-.108-.309-.139l.156-1.015,1.34.212-.24,1.237H322.1c-.06.14-.021.3.148.316l.7.064.309-1.939c.087-.554,0-.6-.178-.6l-.107.405-3.053-.486-.028-.316a.181.181,0,0,0-.219-.167l-.412,2.638Z" transform="translate(-279.994 -211.793)"/><path class="a" d="M320.751,258.413l.261-.974c.051-.211-.014-.349-.2-.359l-.157.427-2.5-.67,3.382-1.377.143-.521c.064-.247-.067-.353-.192-.335l-.2.43-2.945-.788V253.9a.169.169,0,0,0-.189-.186c-.027.152-.08.364-.141.576s-.125.431-.171.594a.218.218,0,0,0,.154.274l.24-.5,2.342.621-2.938,1.186c-.265.1-.354.192-.388.313a.632.632,0,0,0-.02.252l3.312.891-.025.221c-.019.178.039.251.228.28" transform="translate(-278.953 -215.29)"/><path class="a" d="M316.428,264.5c.571.23.911.007,1.385-.526.351-.406.654-.593.99-.463a.632.632,0,0,1,.259.827,2.173,2.173,0,0,1-.336.583l-.493-.212a.261.261,0,0,0,.1.415l.545.275a4.438,4.438,0,0,0,.446-.829,1.2,1.2,0,0,0-.541-1.611c-.376-.15-.763-.019-1.178.441-.569.624-.864.679-1.176.552a.711.711,0,0,1-.3-.9c.211-.524.5-.685,1-.482a.417.417,0,0,0-.2-.577c-.45-.18-.822.177-1.06.757a1.318,1.318,0,0,0,.556,1.746" transform="translate(-278.198 -219.5)"/><path class="a" d="M313.828,268.253l.334-.433,2.745,1.463-.1.255c-.074.167-.056.254.12.323.513-.959.552-1.037.552-1.037.1-.2.086-.327-.085-.376l-.243.374-2.744-1.459.092-.34c.049-.171-.017-.249-.13-.264-.071.15-.2.383-.314.608s-.224.421-.3.552a.215.215,0,0,0,.075.334" transform="translate(-277.151 -221.959)"/><path class="a" d="M312.1,273.054c.532.332.9.164,1.456-.275.421-.335.747-.475,1.053-.282a.631.631,0,0,1,.115.859,2.423,2.423,0,0,1-.427.517l-.455-.3a.26.26,0,0,0,.035.428l.486.362a4.547,4.547,0,0,0,.582-.737,1.192,1.192,0,0,0-.258-1.677c-.341-.218-.743-.151-1.238.228-.664.516-.962.52-1.248.339a.711.711,0,0,1-.143-.934c.3-.479.614-.583,1.07-.3a.42.42,0,0,0-.1-.6c-.409-.257-.844.03-1.179.562a1.323,1.323,0,0,0,.246,1.814" transform="translate(-276.079 -223.914)"/><path class="a" d="M270.728,289.786a.233.233,0,0,0-.373-.02l-.316.3a1.973,1.973,0,0,1-.757-.241c-.655-.351-.928-1.052-.344-2.151a1.3,1.3,0,0,1,1.916-.6,2.05,2.05,0,0,1,.535.394l-.294.463c.123.133.267.129.421-.066l.353-.466a2.578,2.578,0,0,0-.756-.586,1.937,1.937,0,0,0-2.773.822,1.6,1.6,0,0,0,.628,2.431,2.738,2.738,0,0,0,1.253.337Z" transform="translate(-253.812 -232.062)"/><path class="a" d="M278.462,293.225l-.5-.227.751-3.022.251.034c.179.019.277,0,.3-.186-1.058-.265-1.124-.285-1.124-.285-.208-.05-.33,0-.341.168l.411.144-.331,1.3-1.965-.49.329-1.3.291.044c.179.024.281,0,.307-.19-1.061-.261-1.182-.3-1.182-.3-.211-.047-.335,0-.342.172l.42.146-.754,3.023-.39,0a.167.167,0,0,0-.172.193l.711.162c.248.065.423.114.555.153s.3.009.346-.143l-.548-.235.348-1.4,1.965.492-.345,1.394h-.383c-.14,0-.2.093-.183.189.178.038.458.106.732.174.208.051.407.106.55.146a.218.218,0,0,0,.287-.156" transform="translate(-257.076 -233.275)"/><path class="a" d="M287.221,294.073l-.549-.068-.161-3.105.271-.046c.183-.023.247-.084.216-.27l-1.176.061c-.217.009-.319.1-.273.266l.441.022.165,3.1-.343.09c-.171.05-.2.149-.159.253.164-.023.431-.033.688-.048s.471-.024.626-.019a.225.225,0,0,0,.254-.237" transform="translate(-262.756 -234.135)"/><path class="a" d="M293.546,291.6a.253.253,0,0,0-.295.255l-.04.492-1.336.346-.9-2.929.314-.127c.167-.07.234-.153.162-.33l-1.184.362c-.207.065-.285.177-.206.329l.416-.082.912,2.967-.285.176a.162.162,0,0,0-.036.254l2.558-.782Z" transform="translate(-265.054 -233.482)"/><path class="a" d="M299.49,288.136c-.163.014-.267.122-.225.365l.072.44-1.228.63-.682-1.18.891-.511.173.341a.252.252,0,0,0,.167-.378c-.131-.221-.232-.413-.394-.723a.229.229,0,0,0-.2.144c-.03.106,0,.168.092.327l-.9.517-.679-1.178,1.115-.587.35.432c.147-.042.242-.176.147-.318l-.382-.586-1.7.98c-.493.285-.476.378-.357.515l.382-.174,1.545,2.677-.23.226a.179.179,0,0,0,.009.272l2.315-1.335Z" transform="translate(-267.941 -231.726)"/><path class="a" d="M260.529,281.426a.775.775,0,1,1,.774.772.774.774,0,0,1-.774-.772" transform="translate(-249.975 -229.059)"/><path class="a" d="M308.188,281.426a.772.772,0,1,1,.773.772.773.773,0,0,1-.773-.772" transform="translate(-274.332 -229.059)"/><path class="a" d="M285.245,214.16a32.6,32.6,0,0,0-1.466-9.788C280.843,195,274.8,190.7,269.878,190.7s-10.992,4.321-13.913,13.726a33.336,33.336,0,0,0-1.459,9.856c0,15.324,8.862,23.584,15.373,23.584s15.367-8.382,15.367-23.7m-15.634-.147H255.039a32.913,32.913,0,0,1,1.432-9.431c2.828-9.1,8.557-13.194,13.14-13.348Zm0,23.317c-6.042-.227-14.469-8-14.572-22.778h14.572Zm.533-22.778h14.568c-.146,14.7-8.549,22.551-14.568,22.778Zm14.568-.538H270.144V191.234c4.573.154,10.285,4.236,13.124,13.3a31.891,31.891,0,0,1,1.445,9.48" transform="translate(-246.897 -183.088)"/><path class="a" d="M294.567,254.32h4.067a.268.268,0,0,0,.251-.266v-4.489c0-.116,0-.213.228-.213.205,0,.218.109.218.213v4.794a.352.352,0,0,1-.4.4h-8.728a.352.352,0,0,1-.4-.4v-4.794c0-.1.012-.213.216-.213.228,0,.228.1.228.213v4.489a.273.273,0,0,0,.256.266Z" transform="translate(-264.939 -213.063)"/><path class="a" d="M295.484,252.331h3.145c.478,0,.448-.221.264-.31a4.206,4.206,0,0,0-3.011,0c-.314.168-.26-.144-.26-.269v-4.011c0-.221.255-.846,2.515-.76,1.219.048,1.233.275,1.233.439v4.943a.351.351,0,0,1-.374.375h-7.028a.351.351,0,0,1-.373-.375v-4.943c0-.164.011-.4,1.233-.439,2.263-.074,2.516.539,2.516.76v4.011c0,.126.051.438-.261.269a4.2,4.2,0,0,0-3.008,0c-.187.088-.218.31.264.31Z" transform="translate(-265.852 -211.847)"/><path class="a" d="M299.693,217.28c-.08-.11-.284.013-.466,0a13.37,13.37,0,0,1-1.4-.364,3.672,3.672,0,0,1-.4-.118c.681-.246,1.093-1.085.73-1.27-.122-.061-.207.169-.354.254-.4.243-.741-.041-1.145.209a1.947,1.947,0,0,0,.369-.677c.225-.5.586-1.4.205-1.41-.132-.006-.16.232-.277.366-.362.406-.759.507-1.126.859-.111.1-.231.2-.3.261.2-.7-.257-1.53-.616-1.344-.121.063.014.266,0,.437-.038.455-.453.57-.509,1.008a1.771,1.771,0,0,0-.324-.7c-.278-.486-.784-1.3-1.018-1-.085.109.09.27.128.442a12.407,12.407,0,0,1,.028,1.387c.013.1.026.212.044.318-.42-.561-1.29-.738-1.38-.354-.024.136.214.162.336.285.321.319.149.707.45,1.032a1.892,1.892,0,0,0-.748-.195c-.547-.1-1.5-.234-1.417.136.028.137.26.1.422.187.478.247.675.609,1.079.868.086.057.177.121.268.176-.7-.012-1.379.564-1.129.867.09.106.26-.068.43-.09.453-.055.651.323,1.091.28a1.983,1.983,0,0,0-.62.467c-.413.378-1.1,1.039-.762,1.21.12.061.242-.146.4-.222a12.223,12.223,0,0,1,1.348-.315c.1-.033.208-.066.3-.106-.464.525-.456,1.411-.057,1.414.135.005.112-.237.2-.381.248-.385.663-.29.918-.654a1.857,1.857,0,0,0-.036.773c.019.555.084,1.513.431,1.359.123-.054.043-.28.089-.454a12.33,12.33,0,0,1,.625-1.236,1.848,1.848,0,0,0,.107-.313c.1.717.837,1.293,1.089.977.083-.1-.123-.237-.176-.4-.152-.427.179-.7.048-1.129a1.915,1.915,0,0,0,.588.51c.45.329,1.242.866,1.334.5.035-.134-.194-.209-.3-.356a11.538,11.538,0,0,1-.589-1.246,1.54,1.54,0,0,1-.151-.314c.631.392,1.577.2,1.491-.213-.025-.141-.266-.063-.431-.126-.421-.158-.432-.574-.813-.762a2.148,2.148,0,0,0,.74-.128c.537-.137,1.459-.4,1.24-.706m-2.306.775a2.3,2.3,0,1,1-2.3-2.305,2.3,2.3,0,0,1,2.3,2.305" transform="translate(-265.292 -194.859)"/><path class="a" d="M296.082,220.637a1.856,1.856,0,1,1,1.855,1.852,1.853,1.853,0,0,1-1.855-1.852" transform="translate(-268.145 -197.441)"/><path class="a" d="M265.83,247.062l.538-.521h-.4a.278.278,0,0,0-.275.279.293.293,0,0,0,.142.243m3.04,0a.3.3,0,0,0,.148-.243.283.283,0,0,0-.283-.279h-.4Zm-1.529-1.212a.777.777,0,0,1,.437.1.88.88,0,0,1,.3.241h.829a.573.573,0,0,1,.51.4.83.83,0,0,1-.28.78c.174.155,1.719,1.673,1.9,1.85a1.193,1.193,0,0,1,.273,1.164c-.072.274-.261.37-.418.245-.123-.1-2.153-2.648-2.153-2.648s-.065-.085-.115-.047-.023.078.01.135,2.1,2.853,2.1,2.853a.924.924,0,0,1,.156.674c-.069.26-.452.846-.772.927a.49.49,0,0,1-.587-.288c-.37-.974-1.343-3.911-1.343-3.911s-.068-.2-.164-.177-.035.217-.035.217,1.167,3.745,1.3,4.159a.665.665,0,0,1-.137.687,1.716,1.716,0,0,1-1.064.467c-.073,0-.506-.022-.539-.4-.039-.518-.081-4.861-.081-4.861s-.011-.19-.116-.19-.116.192-.116.192-.042,4.34-.083,4.858c-.029.383-.464.406-.537.406a1.747,1.747,0,0,1-1.068-.464.666.666,0,0,1-.132-.685c.123-.42,1.291-4.165,1.291-4.165s.061-.193-.036-.217-.16.183-.16.183-.978,2.936-1.343,3.9a.5.5,0,0,1-.587.294,1.673,1.673,0,0,1-.773-.933.926.926,0,0,1,.158-.672s2.071-2.795,2.1-2.854.06-.1.006-.137-.118.047-.118.047-2.023,2.55-2.149,2.648c-.16.124-.351.028-.419-.246a1.2,1.2,0,0,1,.273-1.164c.185-.177,1.724-1.691,1.9-1.85a.827.827,0,0,1-.277-.778.579.579,0,0,1,.508-.4h.833a1,1,0,0,1,.3-.241.777.777,0,0,1,.424-.1" transform="translate(-251.412 -211.274)"/><path class="a" d="M267.468,216.681a6.5,6.5,0,0,1-.566.85c-.245.259.372.322.532.117.141-.192.445-.714.445-.714s.013-.407-.123-.51-.288.257-.288.257m1.837,5.622a.2.2,0,0,1-.039.287.184.184,0,0,1-.28-.031l-.507-.623c-.511.123-1.39-.727-1.676-.868-.305-.157-.809.755-1.077.133-.565-1.306-2.112.844-2.642.8s.095-.684-.023-1.113-.623,0-1.053.116a4.32,4.32,0,0,1-.543.1l-1.225,1.517a.18.18,0,0,1-.275.025.194.194,0,0,1-.04-.283l4.052-5.289a2.341,2.341,0,0,1,.24-.308c.342-.36.677-.47,1.149.047a12.354,12.354,0,0,1,.737,1c.3-.493,1.05-1.432,1.256-1.754a.493.493,0,0,1,.787-.111c.339.277,1.233,1.563,1.772,2.061a.315.315,0,0,1,.08.085l.569.572a.2.2,0,0,1-.014.288.179.179,0,0,1-.276,0l-.57-.576a1.448,1.448,0,0,1-.556.005c-.259-.066-.682-.452-.52.308.051.254.121.368-.207.4s-1.332-.893-1.549-.586a1.472,1.472,0,0,1-.176.208c.315.518,2.605,3.591,2.605,3.591m-5.063-3.116c-.01-.429-.04-.4.195-.751a2.935,2.935,0,0,0,.25-1.035c.038-.194-.184-.24-.25-.026-.077.156-.251.328-.347.5-.313.381-.823,1.121-1,1.41-.113.18-.68.59-.595.879.048.16.34.148.666-.192.178-.205.225-.262.371-.27.252.029,0,.26.288.332.316.084.427-.576.423-.842" transform="translate(-249.645 -195.916)"/></g></g></svg>