<svg xmlns="http://www.w3.org/2000/svg" width="85.949" height="86.081" viewBox="0 0 85.949 86.081"><defs><style>.a{fill:#fff;}</style></defs><g transform="translate(-0.5 -0.5)"><g transform="translate(0.5 0.5)"><g transform="translate(41.123 21.025)"><path class="a" d="M43.9,16.4A12.359,12.359,0,0,0,31.6,28.7c0,2.38,5.421,4.364,12.3,4.364s12.3-1.851,12.3-4.364A12.191,12.191,0,0,0,43.9,16.4Z" transform="translate(-31.6 -16.4)"/></g><g transform="translate(48.66 8.859)"><path class="a" d="M42.06,16.721a4.76,4.76,0,1,0-4.76-4.76A4.826,4.826,0,0,0,42.06,16.721Z" transform="translate(-37.3 -7.2)"/></g><g transform="translate(21.025)"><path class="a" d="M72.862.5h-48A8.522,8.522,0,0,0,16.4,8.963V38.582a8.522,8.522,0,0,0,8.463,8.463h.926V55.9a1.3,1.3,0,0,0,2.248.926l9.388-9.785H72.862a8.522,8.522,0,0,0,8.463-8.463V8.963A8.522,8.522,0,0,0,72.862.5ZM48.8,40.83c-7.4,0-14.942-2.116-14.942-7.008A14.856,14.856,0,0,1,44.036,19.673a7.117,7.117,0,0,1-2.512-5.554,7.4,7.4,0,1,1,14.81,0,7.571,7.571,0,0,1-2.512,5.554A15.029,15.029,0,0,1,64,33.822C63.87,38.714,56.333,40.83,48.8,40.83Z" transform="translate(-16.4 -0.5)"/></g><g transform="translate(0 38.426)"><path class="a" d="M46.384,62.141l-14.81-3.306a1.066,1.066,0,0,0-1.19.4A9.906,9.906,0,0,0,28.4,61.877a22.538,22.538,0,0,1-7.537-5.157,23.942,23.942,0,0,1-5.157-7.537A9.264,9.264,0,0,0,18.219,47.2a2.133,2.133,0,0,0,.4-1.19L15.31,31.332a1.371,1.371,0,0,0-.793-1.058A10.318,10.318,0,0,0,.5,40.059,37.189,37.189,0,0,0,37.657,77.215,10.468,10.468,0,0,0,48.1,66.769C48.1,65.447,47.706,62.538,46.384,62.141Z" transform="translate(-0.5 -29.56)"/></g></g></g></svg>