<svg xmlns="http://www.w3.org/2000/svg" width="32.269" height="32.269" viewBox="0 0 32.269 32.269"><defs><style>.a,.d{fill:none;}.a{stroke:#fff;stroke-width:1.5px;}.b{fill:#fff;}.c{stroke:none;}</style></defs><g class="a"><ellipse class="c" cx="16.134" cy="16.134" rx="16.134" ry="16.134"/><ellipse class="d" cx="16.134" cy="16.134" rx="15.384" ry="15.384"/></g><path class="b" d="M22.781,18.962c-.492-1.509-1.16-1.824-2.961-2.16a34.177,34.177,0,0,0-5.508-.425A34.177,34.177,0,0,0,8.8,16.8c-1.8.336-2.469.651-2.961,2.16a12.748,12.748,0,0,0-.559,4.018A12.748,12.748,0,0,0,5.843,27C6.335,28.507,7,28.821,8.8,29.157a34.175,34.175,0,0,0,5.508.425,34.177,34.177,0,0,0,5.508-.425c1.8-.336,2.469-.651,2.961-2.16a12.748,12.748,0,0,0,.559-4.018A12.748,12.748,0,0,0,22.781,18.962ZM17.8,23.342,12.54,26.625c-.319.2-.58.06-.58-.308V19.643c0-.369.261-.508.58-.308L17.8,22.618A.394.394,0,0,1,17.8,23.342Z" transform="translate(1.716 -6.378)"/></svg>